<?xml version="1.0" standalone="no"?>
<!DOCTYPE svg PUBLIC "-//W3C//DTD SVG 20010904//EN"
 "http://www.w3.org/TR/2001/REC-SVG-20010904/DTD/svg10.dtd">
<svg version="1.0" xmlns="http://www.w3.org/2000/svg"
 width="5541.000000pt" height="3209.000000pt" viewBox="0 0 5541.000000 3209.000000"
 preserveAspectRatio="xMidYMid meet">
<metadata>
Created by potrace 1.13, written by Peter Selinger 2001-2015
</metadata>
<g transform="translate(0.000000,3209.000000) scale(0.100000,-0.100000)"
fill="#000000" stroke="none">
<path d="M13800 32073 c-73 -11 -222 -48 -279 -70 -62 -23 -84 -25 -356 -34
-159 -5 -308 -11 -330 -14 -59 -8 -530 -53 -680 -65 -323 -27 -577 -118 -865
-311 -171 -115 -574 -447 -764 -629 -269 -258 -460 -559 -577 -905 l-36 -110
-103 -62 c-106 -64 -128 -74 -270 -118 -359 -112 -664 -413 -945 -935 -77
-144 -156 -267 -370 -575 -188 -271 -301 -453 -376 -610 -74 -153 -101 -232
-140 -413 -17 -81 -34 -152 -37 -159 -5 -7 -62 38 -157 123 -328 295 -485 415
-661 503 -90 44 -210 88 -289 105 -36 8 -101 -23 -171 -81 l-44 -35 -88 22
c-55 15 -124 24 -187 26 -55 2 -103 3 -108 4 -4 0 -60 51 -125 113 -124 119
-162 147 -233 173 -166 59 -347 26 -494 -91 -38 -31 -79 -55 -92 -55 -12 0
-179 -31 -370 -70 -192 -38 -391 -74 -443 -79 -52 -5 -139 -17 -193 -26 -91
-16 -101 -16 -141 -1 -101 39 -150 128 -168 308 -13 126 -6 149 51 171 40 16
23 21 236 -67 121 -50 120 -47 -10 51 -86 65 -164 101 -245 115 -85 15 -106 6
-156 -59 -46 -60 -60 -135 -45 -238 15 -106 74 -316 100 -359 33 -53 107 -115
176 -148 85 -39 184 -55 400 -63 326 -12 424 -39 576 -162 198 -160 423 -286
603 -338 162 -46 253 -45 325 3 52 35 85 80 161 222 63 118 116 184 160 202
56 21 122 28 168 16 63 -16 123 -79 192 -202 118 -212 203 -260 396 -225 32 6
69 17 81 25 35 22 65 91 71 161 2 35 8 63 12 63 4 0 65 -60 136 -133 190 -195
314 -367 421 -579 l54 -110 -79 -181 c-44 -100 -96 -236 -116 -302 -242 -813
-246 -1679 -9 -2297 l26 -68 181 0 c227 0 740 -17 951 -30 1091 -71 1838 -286
2372 -683 127 -94 288 -249 370 -353 54 -70 60 -75 88 -70 35 7 263 118 349
170 49 30 68 36 115 36 40 0 92 13 183 44 l126 44 38 -64 c20 -35 47 -72 59
-84 21 -20 21 -22 8 -147 -14 -146 -28 -212 -89 -441 -24 -89 -48 -200 -55
-245 -6 -45 -13 -87 -14 -93 -2 -7 -61 45 -132 115 -70 70 -171 158 -223 197
-95 69 -176 124 -184 124 -2 0 22 -58 55 -129 179 -392 263 -808 276 -1363 l6
-267 -40 -68 c-97 -162 -128 -295 -120 -503 3 -74 13 -168 22 -208 l16 -73
-36 -125 c-156 -544 -462 -1015 -875 -1347 -372 -299 -869 -517 -1422 -623
-54 -11 -98 -21 -98 -24 0 -3 37 -50 82 -105 46 -55 274 -332 507 -615 234
-283 562 -681 730 -885 168 -203 472 -572 676 -820 854 -1036 1136 -1378 1250
-1515 l120 -145 3 62 3 62 -258 313 c-143 172 -567 687 -943 1143 -376 457
-875 1061 -1108 1343 -233 283 -426 520 -428 527 -4 9 14 15 63 20 296 30 689
128 964 238 665 267 1125 706 1401 1337 32 74 113 309 150 440 l13 44 189 67
c104 37 197 70 207 72 17 5 19 -2 19 -69 l0 -73 -72 -55 c-40 -31 -120 -91
-178 -134 -58 -43 -105 -85 -105 -93 0 -20 175 -114 273 -146 l82 -27 0 -2418
0 -2418 2105 0 2105 0 0 1695 0 1695 1050 0 1050 0 0 -1695 0 -1695 2105 0
2105 0 0 4905 0 4905 -2105 0 -2105 0 0 -1710 0 -1710 -1050 0 -1050 0 0 833
0 834 98 25 c53 15 104 28 112 30 13 3 15 -86 18 -744 l2 -748 385 0 385 0 0
823 c0 453 2 826 5 829 3 2 42 -4 88 -14 109 -24 237 -26 304 -4 60 20 88 51
138 158 49 103 63 188 79 458 18 314 26 331 196 457 87 65 134 107 161 145
l20 28 -36 112 c-68 211 -81 343 -46 479 33 126 44 280 31 447 -17 216 -71
518 -130 727 -16 55 -47 170 -69 257 -101 389 -205 579 -404 742 -45 37 -49
38 -109 34 -50 -4 -65 -9 -83 -30 -13 -15 -59 -139 -114 -307 -51 -155 -96
-279 -101 -276 -5 3 -16 25 -26 50 l-17 45 35 78 c47 101 58 157 68 337 9 175
13 188 132 515 158 430 204 598 216 800 16 246 -21 444 -115 625 -32 61 -90
175 -130 255 l-74 145 -23 165 c-34 239 -52 292 -119 364 -41 43 -67 45 -152
16 -32 -11 -62 -20 -66 -20 -4 0 -125 233 -268 518 -329 657 -433 839 -643
1124 -141 192 -233 264 -626 495 -109 64 -237 143 -287 177 -103 70 -248 204
-295 273 -18 27 -56 66 -84 88 -28 22 -145 119 -261 215 -204 171 -346 284
-503 402 -165 124 -440 239 -652 273 -86 14 -342 19 -410 8z m421 -107 c238
-43 494 -164 769 -365 160 -116 362 -284 403 -334 104 -127 163 -261 237 -532
79 -294 94 -335 210 -570 227 -463 323 -762 337 -1057 3 -65 9 -115 14 -113
30 19 40 277 20 515 -14 168 -67 322 -211 610 -66 134 -121 271 -183 460 -25
74 -63 186 -86 249 l-41 114 93 -89 c122 -119 199 -176 532 -396 316 -209 403
-276 525 -405 103 -108 135 -162 236 -391 120 -273 600 -1221 640 -1262 44
-47 51 -82 26 -150 -63 -172 -93 -216 -314 -462 l-142 -156 -64 -17 c-54 -13
-67 -14 -77 -3 -425 480 -640 670 -900 794 -252 120 -342 120 -618 5 -187 -79
-256 -95 -369 -87 -65 4 -109 1 -180 -14 -51 -10 -130 -22 -175 -26 l-82 -7
-29 33 c-40 43 -89 146 -114 239 -28 104 -30 285 -4 396 35 150 6 313 -60 343
-63 29 -137 9 -252 -68 -141 -95 -281 -243 -488 -515 -54 -71 -129 -168 -166
-215 -93 -116 -93 -127 15 -282 55 -80 57 -110 14 -202 -80 -167 -85 -255 -23
-380 26 -53 56 -92 117 -151 l82 -80 -38 -70 c-21 -38 -64 -115 -95 -170 -92
-161 -150 -282 -184 -388 -32 -97 -34 -100 -151 -233 -127 -143 -174 -205
-208 -269 -20 -39 -21 -39 -28 -15 -11 38 -10 167 1 240 22 136 103 459 137
543 44 108 120 225 176 271 24 19 72 48 107 64 64 28 99 56 87 69 -4 3 -39 -4
-79 -16 -40 -11 -82 -21 -94 -21 -62 0 -233 -157 -298 -272 -75 -135 -109
-279 -146 -608 -11 -102 -23 -202 -26 -224 l-6 -38 -40 38 c-55 55 -106 133
-184 287 -86 170 -102 193 -120 175 -12 -12 -11 -28 6 -106 23 -105 50 -321
50 -400 0 -29 -5 -63 -12 -75 -11 -21 -11 -21 -19 -2 -4 11 -8 37 -8 59 -2 72
-32 250 -66 382 -101 395 -322 809 -579 1084 -76 82 -99 99 -133 100 -29 0
-29 -21 -2 -46 35 -31 142 -172 205 -269 71 -111 196 -358 263 -524 28 -68 51
-126 51 -129 0 -3 -23 32 -50 77 -87 143 -170 246 -448 557 -74 82 -168 191
-208 241 -41 51 -84 98 -95 103 -17 10 -19 7 -19 -21 0 -65 94 -204 346 -510
241 -292 360 -477 409 -629 10 -30 54 -154 97 -275 74 -203 145 -441 135 -451
-2 -2 -30 30 -63 73 -68 88 -84 98 -84 54 0 -52 155 -329 249 -445 34 -42 42
-95 17 -115 -11 -10 -36 -1 -120 43 -106 55 -106 56 -213 60 -60 3 -173 14
-253 26 -186 27 -340 37 -340 22 0 -17 79 -41 193 -57 60 -9 147 -27 195 -41
84 -24 390 -138 401 -150 9 -8 -19 -23 -78 -40 -90 -27 -232 -16 -356 28 -402
144 -360 132 -480 133 -97 0 -117 -3 -173 -27 -35 -14 -61 -21 -59 -15 7 23
89 76 142 93 51 17 96 56 81 72 -4 3 -35 6 -71 6 -55 0 -76 -6 -147 -42 -176
-88 -293 -227 -305 -364 -11 -112 39 -116 149 -13 126 119 227 172 348 182 94
7 140 -11 159 -61 10 -27 12 -41 4 -43 -38 -13 -219 -131 -275 -180 -71 -61
-150 -154 -182 -215 -17 -30 -18 -39 -7 -52 30 -36 86 -4 166 94 42 52 78 83
139 119 300 180 507 227 708 160 62 -20 73 -21 127 -9 33 7 102 36 157 66 286
156 303 161 507 127 315 -51 456 -133 573 -333 88 -149 123 -302 154 -670 31
-364 51 -480 94 -555 13 -22 67 -95 119 -162 123 -157 148 -209 148 -299 0
-59 -5 -76 -40 -145 -92 -176 -101 -331 -35 -610 25 -105 25 -108 9 -190 -8
-46 -22 -105 -31 -131 -13 -40 -20 -48 -41 -48 -46 0 -95 33 -145 97 -68 87
-117 110 -171 82 -12 -7 -65 -53 -117 -104 -174 -168 -195 -164 -518 94 -191
152 -239 187 -346 251 -81 49 -95 54 -162 58 -65 4 -80 1 -126 -21 -29 -15
-95 -63 -146 -107 -52 -44 -97 -80 -101 -80 -5 0 -16 18 -26 39 -39 87 -1 202
85 256 80 50 152 52 372 9 15 -3 83 -42 150 -86 213 -140 313 -171 426 -134
54 18 105 67 100 94 -4 21 -171 139 -298 211 -130 74 -270 135 -282 123 -5 -5
61 -64 159 -140 92 -71 186 -146 208 -166 l40 -35 -55 0 c-69 -1 -118 22 -265
121 -61 41 -148 89 -195 107 -47 19 -97 40 -112 48 l-27 13 52 83 c29 45 74
126 102 179 43 82 48 98 36 112 -19 23 -42 20 -87 -13 -21 -16 -53 -31 -69
-33 -24 -2 -31 -8 -33 -30 -4 -33 -9 -34 -56 -11 -43 20 -66 6 -66 -38 0 -22
-5 -29 -19 -29 -10 0 -24 7 -31 15 -24 29 -49 17 -75 -36 -28 -54 -47 -59 -55
-14 -9 53 -61 60 -80 10 -14 -36 -28 -31 -32 13 -3 35 -5 37 -37 38 -61 0 -61
62 0 83 26 9 30 15 25 34 -9 39 47 111 168 212 138 115 160 138 186 197 20 45
20 55 11 237 -7 130 -18 230 -36 316 -32 158 -80 311 -101 319 -40 15 -110
-51 -156 -150 -25 -54 -74 -241 -65 -250 9 -9 37 37 68 111 54 132 112 203
124 152 33 -138 43 -393 25 -599 -7 -79 -16 -152 -20 -163 -5 -15 -19 4 -68
95 -76 144 -88 160 -101 140 -13 -19 -3 -62 31 -137 15 -35 28 -78 28 -98 0
-33 -2 -35 -34 -35 -138 0 -230 338 -171 624 25 120 5 139 -64 59 -91 -105
-129 -223 -138 -427 -5 -117 -4 -138 8 -134 9 3 24 55 44 149 l30 144 7 -130
c10 -179 24 -281 55 -383 14 -48 28 -100 30 -117 4 -34 -30 -99 -49 -93 -7 3
-31 58 -55 123 -24 65 -47 123 -51 127 -14 14 -43 -3 -53 -29 -14 -36 -11 -73
11 -165 39 -162 24 -210 -79 -255 -118 -52 -265 -39 -414 39 -185 97 -308 269
-364 513 -16 71 -18 123 -16 472 1 275 5 410 14 450 21 93 16 290 -10 423 -26
131 -90 332 -181 565 -135 345 -174 496 -188 720 -15 236 11 481 83 763 30
123 41 150 93 233 32 52 80 130 107 174 27 44 84 115 127 159 65 66 76 81 66
93 -10 12 -29 14 -88 11 -91 -6 -150 -33 -241 -113 -35 -30 -71 -55 -79 -54
-39 3 -53 -4 -80 -48 -29 -45 -38 -95 -22 -120 4 -6 20 -15 35 -18 37 -10 66
11 118 85 23 33 43 59 45 57 2 -1 -8 -39 -21 -82 -13 -44 -35 -120 -50 -170
-16 -53 -45 -119 -71 -161 -50 -81 -112 -257 -145 -414 -19 -85 -23 -137 -23
-275 0 -210 2 -219 165 -692 110 -319 199 -594 199 -618 0 -16 -226 454 -265
549 -19 49 -42 117 -51 150 -9 34 -20 67 -26 74 -17 20 -56 14 -73 -12 -14
-20 -14 -31 -1 -92 18 -82 46 -180 120 -412 87 -274 131 -511 111 -602 l-7
-32 -35 48 c-42 58 -106 190 -137 283 -17 50 -28 67 -44 69 -23 4 -24 1 -173
-282 -209 -399 -383 -579 -644 -665 -290 -96 -512 -38 -784 202 -41 36 -136
132 -212 213 -125 133 -144 158 -199 264 -71 136 -125 199 -159 181 -12 -7
-21 -19 -21 -27 0 -39 66 -206 141 -356 44 -90 77 -158 71 -153 -5 6 -41 57
-79 115 -247 371 -402 686 -477 970 -21 79 -25 85 -51 88 -16 2 -32 -2 -36
-10 -26 -41 7 -281 61 -448 54 -164 181 -378 372 -628 60 -79 121 -168 134
-198 l24 -55 -34 26 c-43 33 -165 170 -231 260 -28 38 -102 150 -165 247 -113
174 -141 203 -154 160 -15 -47 127 -338 235 -483 81 -107 212 -244 314 -327
39 -31 72 -57 73 -58 3 -2 62 -240 62 -250 0 -2 -6 -4 -14 -4 -25 0 -38 -29
-46 -101 -10 -89 -25 -108 -74 -91 -44 16 -61 8 -82 -36 -36 -80 -71 -92 -122
-42 -38 36 -57 37 -96 5 -33 -26 -66 -20 -66 14 0 35 -33 53 -87 45 -49 -6
-51 -5 -73 27 -43 63 -73 89 -101 89 -34 0 -39 8 -47 67 -7 44 -9 47 -52 62
-66 23 -72 29 -65 61 5 23 0 36 -30 69 -96 106 -161 492 -137 805 22 274 59
440 221 978 61 202 118 397 127 434 10 40 20 61 24 53 4 -8 38 -126 74 -264
95 -352 140 -503 193 -635 54 -139 124 -273 135 -262 4 4 -8 69 -27 143 -38
148 -111 510 -145 719 -12 74 -49 239 -82 365 l-61 230 6 125 c21 451 209 923
521 1310 103 127 164 227 324 530 74 140 159 297 188 348 173 295 408 514 652
608 53 20 128 52 165 71 38 19 80 38 93 43 47 18 12 -20 -153 -167 -91 -81
-188 -174 -215 -206 -88 -106 -227 -417 -186 -417 22 0 33 13 71 83 50 92 108
169 187 248 62 61 209 174 217 165 2 -2 -23 -54 -56 -117 -64 -122 -85 -183
-97 -275 -6 -53 -5 -57 9 -46 8 7 34 57 56 110 31 72 61 122 117 192 183 229
284 423 309 595 16 113 205 430 405 680 265 331 709 745 967 901 200 121 432
222 618 269 168 43 283 54 640 60 187 3 380 10 430 15 49 5 91 8 92 6 7 -6
-211 -127 -374 -206 -101 -50 -183 -94 -183 -99 0 -11 112 12 206 44 74 25
155 61 439 193 181 84 306 124 485 156 157 28 344 33 461 12z m359 -2841 c0
-27 -11 -96 -25 -153 -14 -57 -25 -120 -25 -140 0 -20 -7 -64 -15 -97 -17 -72
-18 -105 -4 -125 8 -11 12 -12 16 -2 11 28 21 8 27 -60 12 -130 89 -326 215
-543 l46 -80 3 -150 c5 -225 -26 -331 -130 -441 -27 -29 -47 -57 -44 -62 13
-22 67 -34 119 -28 99 13 235 114 282 211 30 61 36 148 12 172 -12 12 -15 8
-26 -29 -32 -107 -110 -206 -193 -249 -43 -22 -43 -21 4 48 62 91 128 277 128
360 0 39 17 44 25 8 3 -14 7 -36 10 -50 10 -48 65 -25 65 27 0 35 -18 72 -81
163 -27 39 -58 97 -69 130 l-20 58 25 33 c49 64 137 102 260 111 l80 5 -34
-31 c-18 -18 -31 -34 -29 -37 3 -2 35 10 73 27 125 56 571 199 623 199 136 0
299 -78 552 -264 140 -102 251 -199 375 -327 273 -281 438 -561 535 -905 16
-59 38 -121 49 -138 10 -17 35 -58 55 -90 40 -66 45 -109 20 -157 -15 -30 -15
-31 28 -85 85 -108 92 -128 61 -182 -24 -42 -8 -71 72 -129 36 -25 65 -51 65
-56 0 -5 -60 -68 -133 -141 -73 -72 -142 -146 -152 -164 -23 -38 -53 -42 -82
-9 -42 45 -45 62 -38 196 6 107 5 132 -9 158 -21 42 -144 143 -174 143 l-23 0
23 -40 c13 -22 41 -65 62 -95 l40 -56 3 -112 c2 -62 -1 -125 -5 -142 -6 -19
-2 -64 9 -125 9 -52 15 -97 13 -99 -6 -7 -33 21 -56 58 -21 32 -23 53 -28 206
-6 163 -7 172 -36 230 -28 56 -35 63 -112 103 -96 50 -106 41 -42 -40 58 -73
82 -145 88 -258 3 -80 1 -105 -18 -155 -38 -107 -39 -102 38 -181 77 -79 102
-133 102 -217 0 -40 -5 -53 -29 -78 -32 -31 -51 -34 -121 -18 -79 18 -139 14
-166 -12 -23 -21 -23 -24 -7 -30 10 -4 32 -5 49 -2 48 8 132 -14 209 -53 39
-20 74 -40 79 -44 17 -16 -37 -49 -124 -76 -152 -47 -168 -55 -225 -113 -99
-99 -142 -228 -115 -342 27 -115 42 -112 59 10 6 45 22 98 40 136 31 62 115
164 127 153 3 -4 -11 -44 -31 -90 -47 -107 -49 -164 -9 -239 66 -122 199 -228
339 -271 90 -28 227 -30 302 -4 137 46 253 239 253 420 l0 60 50 -49 c28 -27
60 -69 72 -93 19 -39 20 -49 9 -96 -39 -177 -175 -338 -416 -496 -163 -107
-164 -108 -185 -170 -34 -96 -24 -195 38 -402 70 -230 255 -492 419 -591 105
-64 172 -81 308 -81 124 0 179 9 324 50 46 14 86 23 88 20 2 -2 -2 -14 -9 -25
-25 -41 -103 -80 -243 -122 -126 -37 -151 -42 -245 -42 -128 0 -195 15 -403
90 -144 51 -160 55 -183 42 l-26 -13 25 -22 c77 -66 279 -150 427 -178 105
-20 301 -20 416 -1 225 39 402 185 366 303 -10 30 -9 38 3 45 64 35 195 157
272 251 l32 40 31 -70 c17 -38 34 -91 37 -118 l6 -49 -100 -96 c-58 -56 -142
-123 -201 -161 -56 -36 -100 -69 -98 -75 2 -5 20 -9 40 -8 31 2 36 0 32 -15
-18 -60 -28 -130 -41 -311 -17 -230 -32 -315 -71 -402 -37 -82 -73 -100 -194
-100 -48 0 -106 5 -129 11 -74 20 -187 28 -270 19 -111 -11 -213 -39 -416
-113 -212 -78 -504 -160 -645 -182 -148 -23 -379 -21 -495 4 -257 55 -506 218
-637 417 -25 39 -92 160 -148 270 -120 233 -186 345 -205 345 -8 0 -57 49
-110 109 -138 157 -245 236 -359 265 -69 18 -92 36 -117 91 -19 40 -26 135
-11 135 5 0 16 6 26 13 17 12 17 16 3 43 -8 16 -24 37 -35 47 -18 17 -19 21
-5 80 12 48 17 173 22 542 6 396 11 495 25 564 9 46 15 85 12 88 -11 12 -56
-89 -71 -162 -9 -44 -21 -95 -27 -114 l-10 -33 -29 52 c-46 84 -125 183 -281
351 -156 169 -161 178 -177 309 -17 133 14 245 86 317 68 68 93 211 49 278
-33 50 -48 34 -124 -122 -152 -315 -175 -480 -93 -648 30 -60 62 -94 222 -235
150 -132 247 -327 285 -570 19 -124 19 -417 -1 -585 -8 -71 -18 -156 -21 -187
-9 -74 8 -138 56 -215 34 -55 36 -62 19 -66 -21 -6 -31 10 -123 188 -57 111
-127 206 -141 193 -7 -7 32 -126 84 -255 11 -29 19 -53 17 -53 -2 0 -32 46
-67 103 -34 56 -83 131 -108 166 l-45 65 -1 115 c0 103 -3 123 -26 179 -42 98
-88 167 -170 255 -128 138 -146 191 -159 488 -10 201 -11 210 -56 365 -74 260
-138 401 -241 537 -97 126 -277 242 -393 251 -29 3 -39 10 -58 42 -61 107 -81
264 -48 394 22 88 92 227 168 332 35 47 133 170 218 273 85 103 161 203 168
223 7 20 29 100 48 176 30 121 46 169 60 185 2 2 39 -33 82 -78 72 -74 112
-99 112 -70 0 6 -13 35 -29 63 -32 56 -81 203 -81 242 0 49 26 25 119 -113 50
-73 71 -96 106 -113 134 -65 102 56 -63 244 -220 249 -302 375 -332 511 -10
43 -8 52 24 123 l35 77 -40 153 c-43 170 -46 200 -23 267 33 99 206 327 360
475 114 109 173 156 298 234 100 63 106 62 106 -19z m3418 -720 c28 -35 38
-69 51 -170 7 -49 27 -173 46 -275 59 -322 69 -485 40 -624 -19 -90 -51 -142
-144 -235 -70 -69 -258 -221 -274 -221 -4 0 -7 24 -7 53 0 72 -24 175 -54 240
-29 61 -103 150 -117 141 -15 -9 -10 -53 11 -93 10 -21 27 -81 36 -132 20
-106 13 -180 -26 -265 l-22 -49 -24 47 c-13 26 -55 140 -94 253 -38 113 -83
232 -100 265 -35 70 -37 93 -10 120 18 18 32 20 123 18 88 -1 108 1 144 20 54
28 68 50 87 135 20 87 20 85 -8 98 -21 10 -30 7 -59 -15 -19 -15 -50 -49 -69
-76 -40 -60 -74 -69 -64 -17 11 54 72 131 186 232 170 150 179 164 238 375 50
180 58 200 76 200 8 0 23 -11 34 -25z m-11258 -759 c35 -14 97 -47 139 -73
100 -61 320 -235 413 -324 l73 -71 -26 -13 c-14 -8 -38 -32 -54 -55 -26 -38
-29 -39 -49 -26 -22 14 -23 25 -11 88 9 47 -12 60 -56 34 -37 -22 -51 -13 -44
28 9 44 -15 65 -51 46 -28 -16 -41 -7 -46 30 -2 19 -10 26 -33 30 -16 3 -55
24 -85 47 -30 23 -98 66 -150 96 -75 43 -102 53 -126 50 -26 -4 -45 4 -96 39
-37 25 -63 49 -60 57 2 7 18 22 36 32 41 27 139 20 226 -15z m-731 13 c161
-21 220 -42 363 -130 181 -111 265 -170 316 -222 50 -51 48 -68 -9 -91 -117
-47 -186 -23 -289 102 -36 44 -87 96 -115 117 -69 52 -210 117 -338 156 l-107
32 -88 -16 c-137 -25 -213 -30 -262 -17 l-44 12 30 13 c94 39 259 56 337 34
30 -8 42 -7 59 6 27 18 37 18 147 4z m12303 -177 c52 -114 79 -240 85 -397 6
-139 5 -141 -32 -275 -96 -347 -209 -595 -357 -782 l-29 -37 -42 42 c-23 23
-73 61 -112 84 -38 23 -83 55 -99 72 -27 28 -29 36 -27 91 3 80 -12 122 -54
155 -53 39 -60 59 -34 94 13 17 21 44 21 67 0 22 5 56 10 77 8 33 16 41 81 73
267 134 466 349 522 564 14 52 16 88 11 175 -7 103 -6 109 9 87 9 -12 30 -53
47 -90z m-11514 -346 c-4 -36 -64 -83 -118 -92 -31 -5 -41 -1 -80 35 l-45 40
36 1 c48 0 132 26 161 49 30 25 50 10 46 -33z m799 -168 c13 -12 23 -26 23
-33 0 -6 -29 -40 -65 -75 -55 -54 -68 -63 -83 -54 -28 18 -26 56 6 103 24 35
75 81 91 81 3 0 15 -10 28 -22z m79 -341 c-3 -19 -12 -42 -20 -52 -12 -16 -16
-13 -54 40 -23 32 -42 69 -42 83 0 25 25 67 69 115 l26 29 14 -91 c7 -50 10
-106 7 -124z m10291 -827 c17 -10 37 -29 44 -42 45 -83 53 -254 15 -333 -48
-102 -94 -113 -195 -47 -36 23 -72 40 -80 38 -9 -3 -52 -6 -96 -8 l-80 -3 0
39 c0 53 19 64 85 47 53 -13 100 -9 100 10 0 6 -18 33 -41 60 l-41 49 82 89
c77 84 125 120 160 121 8 0 29 -9 47 -20z m511 -169 c58 -29 129 -129 178
-248 190 -458 314 -1099 314 -1618 0 -247 -44 -416 -150 -577 -143 -217 -370
-332 -660 -332 -144 0 -169 7 -292 81 -147 89 -283 233 -356 378 -59 118 -77
197 -77 336 l0 126 44 57 c25 32 124 124 220 205 218 183 274 247 336 388 66
151 88 223 135 449 55 266 91 389 149 509 27 55 61 137 76 183 16 45 32 82 37
82 5 0 26 -9 46 -19z m-955 -426 c165 -273 202 -368 201 -515 0 -129 -24 -188
-107 -272 -77 -76 -130 -101 -218 -102 -61 -1 -76 3 -162 47 -151 77 -242 189
-242 300 l0 57 146 143 c205 199 256 282 266 428 5 65 8 78 19 67 7 -7 50 -76
97 -153z m219 108 c44 -18 45 -21 17 -57 -23 -30 -69 -56 -97 -56 -28 0 -92
82 -92 119 0 24 106 21 172 -6z m168 -164 c0 -46 -22 -94 -50 -109 -11 -6 -41
-15 -67 -19 -51 -10 -57 -7 -89 52 l-15 27 73 34 c40 18 81 43 92 54 28 32 56
13 56 -39z m131 -196 c33 -78 34 -97 3 -188 -15 -47 -32 -85 -36 -85 -4 0 -8
4 -8 10 0 5 -20 32 -45 60 -49 55 -75 99 -75 127 0 26 105 123 133 123 4 0 17
-21 28 -47z m5166 -1958 c8 -9 12 -19 8 -23 -3 -4 -10 0 -15 8 -7 13 -225 15
-1839 15 -1007 0 -1831 3 -1831 7 0 5 824 8 1831 8 1639 0 1832 -2 1846 -15z
m-10387 -424 c87 -36 165 -91 284 -197 214 -193 336 -276 428 -291 62 -9 133
33 214 127 38 44 74 82 80 84 22 9 84 -17 124 -51 44 -38 125 -162 147 -225
23 -67 42 -216 53 -421 19 -349 42 -492 109 -660 48 -121 101 -352 117 -508
l6 -65 -51 -33 c-62 -40 -170 -76 -274 -90 -171 -24 -575 -7 -707 29 -97 27
-257 106 -341 169 -177 134 -348 328 -453 514 -15 26 -85 108 -155 182 -135
142 -184 216 -200 302 -8 39 2 132 55 506 l64 458 56 52 c168 155 283 185 444
118z m1656 -124 c130 -139 211 -249 238 -325 39 -110 63 -254 86 -507 12 -138
42 -363 74 -562 51 -310 53 -336 42 -387 -16 -68 -57 -138 -100 -171 -18 -14
-35 -25 -38 -25 -3 0 -8 24 -11 54 -12 123 -49 217 -187 491 -180 354 -190
383 -200 600 -12 230 -47 388 -119 520 -33 62 -28 126 19 251 23 60 42 127 43
154 l2 48 46 -39 c26 -21 73 -67 105 -102z m757 -831 c45 -19 128 -110 160
-176 59 -121 71 -195 70 -425 0 -131 -5 -226 -12 -253 -10 -34 -34 -65 -120
-150 -148 -147 -150 -150 -148 -348 0 -139 -2 -166 -21 -217 -40 -109 -89
-164 -195 -219 -86 -45 -209 -153 -283 -249 -47 -62 -49 -85 -7 -95 20 -5 34
2 76 42 80 76 106 98 112 92 7 -7 -108 -332 -157 -445 -36 -84 -43 -93 -67
-93 -14 0 -42 -13 -61 -28 -45 -37 -67 -44 -91 -32 -16 9 -21 7 -30 -14 -18
-40 -38 -40 -94 -1 -56 38 -76 38 -93 -1 -15 -31 -28 -30 -87 7 -44 28 -53 30
-103 24 -43 -5 -57 -3 -73 11 -26 23 -24 48 6 68 51 34 17 66 -70 66 -65 0
-95 14 -95 45 0 34 -24 42 -67 21 -19 -9 -39 -14 -44 -11 -12 8 -12 41 1 64 6
13 5 24 -3 35 -12 16 -15 16 -57 -3 -24 -11 -47 -18 -51 -15 -4 2 -5 21 -2 43
7 48 -7 58 -59 40 -52 -17 -62 -2 -40 57 15 41 15 45 -1 61 -15 15 -20 16 -38
5 -26 -16 -31 -11 -44 41 -7 27 -18 45 -33 52 -12 5 -22 17 -22 26 0 25 -84
89 -118 89 -23 0 -21 -36 5 -79 15 -25 46 -89 68 -141 65 -150 145 -259 226
-307 65 -39 5 -45 -82 -9 -77 31 -141 86 -193 165 -56 85 -87 167 -121 316
-65 288 -78 334 -111 401 -39 80 -44 146 -12 152 31 6 66 -70 106 -229 30
-123 41 -155 60 -167 20 -13 24 -13 41 2 15 14 17 24 9 69 -19 120 -25 207
-17 257 4 29 10 54 11 56 2 1 34 -6 72 -17 187 -51 508 -66 735 -34 132 19
333 68 366 89 34 22 57 81 57 145 0 46 -24 195 -58 359 -8 37 8 42 54 18 33
-17 47 -41 71 -126 23 -81 97 -216 133 -243 97 -72 274 49 306 208 32 154 25
276 -34 600 -19 104 -37 222 -40 260 l-7 71 79 36 c44 20 88 39 99 41 42 10
107 6 138 -7z m-2495 -1085 c64 -65 132 -130 149 -144 30 -24 32 -27 22 -57
-18 -51 -5 -165 35 -295 32 -103 37 -130 33 -190 -7 -100 -25 -246 -31 -252
-3 -3 -24 2 -46 11 -29 11 -46 13 -59 6 -34 -18 -35 -58 -5 -162 5 -16 -4 -18
-82 -18 -87 0 -87 0 -270 -81 -198 -86 -285 -118 -406 -149 -118 -31 -107 -37
-161 108 -59 160 -82 247 -97 364 -41 314 154 584 645 890 77 49 144 88 148
88 4 0 61 -53 125 -119z"/>
<path d="M12459 30594 c-51 -25 -121 -52 -154 -61 -136 -35 -456 -193 -618
-306 -181 -126 -347 -296 -427 -435 -40 -70 -79 -95 -280 -177 -132 -53 -211
-99 -256 -147 -33 -34 -362 -624 -391 -700 -23 -60 -23 -251 0 -333 9 -33 41
-136 72 -230 87 -269 101 -372 65 -485 -23 -72 -25 -112 -6 -155 12 -28 13
-29 23 -10 6 11 14 42 17 68 5 33 16 58 36 78 63 66 65 256 5 544 -19 94 -42
209 -50 258 l-14 87 34 123 c54 196 145 385 257 529 80 104 201 218 263 250
118 60 223 129 420 277 110 83 203 151 206 151 14 0 51 -96 64 -164 7 -39 17
-114 21 -166 l8 -95 8 80 c11 102 -6 294 -31 349 -30 69 -42 73 -114 44 -34
-14 -64 -24 -66 -22 -7 7 50 63 214 214 165 151 203 175 410 253 139 52 243
83 252 73 3 -3 -10 -44 -30 -90 -47 -108 -47 -137 -1 -60 37 63 164 234 188
253 18 15 9 51 -13 51 -10 0 -60 -21 -112 -46z"/>
<path d="M12210 27726 c0 -8 31 -62 68 -120 38 -57 95 -152 127 -211 31 -58
60 -104 62 -101 17 17 -105 264 -184 371 -53 73 -73 90 -73 61z"/>
<path d="M13348 27543 c-62 -21 -171 -105 -226 -175 -43 -56 -45 -60 -83 -249
-43 -217 -66 -422 -52 -465 8 -24 12 -14 27 77 43 250 102 431 180 554 45 69
140 171 197 211 41 28 49 48 23 58 -9 3 -16 6 -17 5 -1 0 -23 -7 -49 -16z"/>
<path d="M13220 25279 c-19 -6 -74 -29 -122 -51 -64 -30 -88 -46 -88 -60 0
-21 1 -21 91 -7 52 9 86 9 141 0 73 -12 179 -53 198 -76 14 -17 -7 -22 -205
-40 -234 -21 -298 -37 -382 -97 -47 -34 -59 -54 -42 -74 17 -21 30 -18 157 33
l117 47 205 6 c181 5 210 8 253 27 39 18 47 27 47 48 0 16 -12 39 -31 57 -22
22 -27 33 -18 39 32 19 -54 126 -120 148 -40 13 -152 13 -201 0z"/>
<path d="M13430 24087 c0 -7 19 -27 43 -44 60 -42 179 -241 221 -370 30 -92
73 -100 94 -18 13 50 9 184 -7 243 l-8 27 -7 -35 c-4 -19 -12 -50 -18 -69
l-11 -34 -47 93 c-27 51 -65 110 -86 131 -60 62 -174 111 -174 76z"/>
<path d="M14385 28992 c-81 -39 -170 -135 -224 -243 -23 -45 -39 -84 -36 -87
3 -3 7 -3 8 -1 2 2 23 30 46 62 36 49 47 58 69 55 l27 -3 -3 -80 c-1 -44 -11
-143 -21 -220 -29 -213 -33 -282 -22 -375 13 -105 35 -130 127 -148 77 -16
106 -36 102 -70 -2 -21 -8 -26 -23 -24 -145 23 -175 10 -174 -71 1 -103 42
-176 74 -134 8 12 11 32 8 52 -6 37 11 55 33 33 7 -7 17 -35 20 -61 6 -42 4
-51 -17 -73 -13 -14 -35 -32 -49 -39 -23 -12 -30 -10 -82 28 -79 59 -95 103
-64 179 13 30 13 38 -3 73 -22 48 -44 69 -95 90 -30 13 -36 20 -30 33 4 9 10
42 12 73 3 50 -1 64 -46 152 -28 54 -53 109 -56 122 -10 38 16 87 82 158 33
35 65 74 72 87 12 22 11 22 -16 16 -42 -11 -110 -63 -168 -130 -50 -57 -51
-60 -50 -120 1 -48 10 -84 44 -166 24 -58 45 -124 48 -147 4 -38 1 -46 -27
-72 -17 -16 -31 -39 -31 -50 0 -19 4 -21 33 -16 23 4 48 -2 95 -24 71 -34 79
-56 32 -84 -35 -21 -34 -18 -15 -85 12 -39 30 -66 69 -106 75 -74 142 -106
226 -106 156 0 240 110 240 315 0 69 -6 98 -50 225 -124 363 -159 641 -109
870 34 155 34 154 -56 112z"/>
<path d="M15150 27116 c-244 -87 -467 -285 -662 -591 -93 -147 -125 -235 -84
-235 13 0 353 223 394 259 23 20 30 51 12 51 -20 0 -80 -29 -125 -60 -42 -29
-105 -55 -105 -44 0 16 76 149 113 200 88 116 253 257 448 384 52 33 89 60 84
60 -6 0 -39 -11 -75 -24z"/>
<path d="M15563 27096 c9 -7 59 -28 110 -45 253 -88 300 -117 515 -325 237
-229 264 -247 412 -275 67 -13 291 -33 297 -27 9 9 -109 46 -223 70 -66 14
-129 29 -141 33 -11 4 -108 94 -215 198 -106 105 -213 206 -238 226 -93 76
-216 120 -397 144 -137 18 -143 18 -120 1z"/>
<path d="M15402 26940 c-67 -14 -147 -55 -267 -135 -92 -61 -203 -155 -184
-155 3 0 64 32 135 71 136 75 251 129 322 150 56 16 127 1 231 -51 105 -53
202 -139 360 -319 142 -162 192 -201 256 -201 l39 0 -40 43 c-23 23 -78 87
-124 142 -208 250 -323 356 -457 421 -58 28 -86 35 -150 39 -43 2 -97 0 -121
-5z"/>
<path d="M15225 26329 c-143 -21 -336 -92 -482 -177 -71 -42 -89 -66 -57 -79
9 -3 75 9 146 27 265 68 357 35 636 -221 l133 -122 -35 -29 c-19 -15 -68 -74
-109 -131 -80 -111 -102 -146 -93 -154 6 -7 94 66 133 110 28 32 124 82 180
93 32 6 79 -12 103 -41 11 -13 10 -19 -9 -38 -26 -29 -27 -41 -2 -27 37 19 76
11 124 -26 26 -20 47 -40 47 -44 0 -5 18 -22 41 -38 46 -34 41 -45 -17 -32
-59 14 -211 11 -288 -5 -38 -8 -72 -13 -74 -10 -3 2 21 32 52 66 73 78 64 93
-30 53 -57 -25 -76 -40 -127 -101 -63 -76 -78 -86 -142 -89 -79 -3 -166 -26
-193 -50 l-27 -24 70 7 c39 4 86 7 105 6 19 0 73 -2 119 -3 100 -2 117 -8 238
-88 107 -70 150 -86 204 -79 22 3 39 3 39 1 0 -2 -15 -11 -32 -21 -25 -13 -69
-19 -178 -24 -161 -7 -215 -19 -140 -31 25 -3 64 -7 87 -7 23 -1 54 -6 69 -11
l27 -11 -34 -30 c-19 -17 -26 -28 -17 -25 10 3 72 12 138 21 66 9 133 20 148
26 15 6 70 55 122 111 l96 100 78 14 c93 16 158 44 272 119 84 55 143 88 189
105 23 9 24 8 18 -23 -12 -66 -28 -82 -106 -111 -156 -57 -314 -165 -495 -340
-62 -60 -111 -111 -109 -113 2 -2 60 34 128 79 68 46 214 130 324 188 225 118
293 172 316 248 10 36 10 49 -1 75 -19 45 -15 87 13 143 36 71 39 101 27 214
-22 197 -97 358 -231 493 -35 34 -66 57 -79 57 -72 0 -187 -136 -140 -165 6
-4 28 -42 50 -86 38 -74 81 -121 98 -105 13 13 6 110 -11 162 -12 35 -25 55
-42 62 -29 13 -32 34 -9 53 14 12 24 6 75 -49 164 -174 246 -487 162 -620 -8
-13 -17 -22 -19 -19 -3 3 -11 47 -18 99 -13 88 -49 188 -64 174 -3 -4 -5 -38
-4 -77 2 -57 -1 -77 -18 -104 -23 -38 -66 -75 -85 -75 -7 0 -156 101 -331 224
-176 124 -382 264 -459 312 -147 92 -399 224 -425 223 -8 -1 -42 -5 -75 -10z
m826 -1021 c22 -6 39 -15 39 -21 0 -17 -60 -66 -97 -78 -24 -8 -72 -10 -140
-6 -84 4 -113 10 -157 31 -85 41 -88 53 -19 61 32 3 85 10 118 14 91 13 213
12 256 -1z"/>
<path d="M14615 25719 c-4 -46 -5 -150 -3 -230 3 -140 4 -147 31 -188 33 -50
102 -96 173 -117 l51 -15 -30 -32 c-50 -53 -118 -222 -117 -292 1 -19 1 -19
20 3 10 12 41 64 69 115 27 50 60 102 73 114 36 33 90 88 122 123 28 31 29 33
12 46 -16 11 -26 10 -70 -6 -65 -25 -80 -25 -141 4 -108 51 -132 106 -150 346
-15 210 -29 256 -40 129z"/>
<path d="M15339 24964 c-38 -19 -90 -63 -179 -153 -69 -69 -143 -141 -165
-158 -36 -30 -38 -34 -23 -49 14 -14 18 -14 49 1 19 10 50 30 69 45 19 15 93
54 164 86 138 62 233 119 266 161 11 14 19 28 17 30 -2 2 -50 -10 -107 -27
-57 -16 -106 -27 -109 -24 -7 6 25 33 78 67 77 49 31 65 -60 21z"/>
<path d="M15872 24667 c-36 -11 -127 -127 -237 -303 -160 -252 -215 -422 -215
-657 0 -99 22 -312 33 -323 1 -1 2 59 3 134 1 216 38 360 154 597 63 128 189
334 289 469 63 84 54 109 -27 83z"/>
<path d="M16807 24303 c-25 -25 26 -115 92 -163 58 -43 68 -82 47 -201 -12
-71 -13 -104 -5 -132 10 -37 29 -42 29 -9 0 9 20 76 44 149 l44 132 -43 35
c-23 20 -66 66 -93 104 -52 70 -97 103 -115 85z"/>
<path d="M15227 23743 c-28 -288 19 -610 119 -834 22 -48 29 -57 34 -43 12 32
-7 154 -39 257 -49 156 -69 292 -87 580 -4 59 -10 107 -14 107 -4 0 -10 -30
-13 -67z"/>
<path d="M15963 23691 c-151 -26 -302 -270 -303 -490 0 -74 30 -132 93 -182
47 -38 261 -169 275 -169 11 0 -70 78 -174 167 l-104 88 0 55 c0 140 57 282
155 388 73 78 95 84 270 69 64 -5 119 -6 123 -3 11 12 -37 42 -92 59 -62 19
-185 28 -243 18z"/>
<path d="M15115 23556 c-4 -15 -5 -90 -2 -165 4 -112 11 -160 41 -274 41 -160
68 -227 90 -227 33 0 21 78 -55 356 -27 99 -53 216 -58 260 -6 65 -9 74 -16
50z"/>
<path d="M15355 23526 c-14 -34 2 -277 25 -371 22 -96 57 -176 79 -183 21 -7
8 118 -24 248 -15 58 -37 155 -50 215 -16 75 -25 104 -30 91z"/>
<path d="M15012 23478 c-25 -98 -13 -248 30 -380 27 -84 48 -90 48 -15 0 47
-42 339 -59 412 -7 30 -7 29 -19 -17z"/>
<path d="M15961 23309 l-33 -20 4 -77 c3 -57 11 -92 31 -135 36 -79 116 -187
138 -187 26 0 33 19 15 39 -9 10 -16 26 -16 36 0 11 -11 31 -25 45 -23 24 -24
28 -10 40 22 19 18 30 -15 41 -33 12 -38 31 -18 75 11 23 10 28 -11 45 -26 21
-20 39 13 39 33 0 88 -63 146 -170 59 -108 89 -144 143 -171 35 -18 44 -19 93
-8 33 7 61 20 69 32 7 10 18 16 24 12 20 -11 52 -84 54 -121 3 -51 -17 -62
-90 -46 -71 15 -91 2 -40 -28 19 -11 38 -27 40 -34 3 -8 36 -19 77 -27 62 -11
75 -10 105 4 84 40 48 183 -77 303 -89 87 -242 203 -289 219 -22 8 -67 31
-102 51 -115 67 -169 78 -226 43z"/>
<path d="M16080 22747 c0 -54 97 -269 158 -349 35 -47 131 -132 139 -124 2 2
-12 25 -32 51 -19 26 -54 86 -76 134 -23 47 -56 118 -75 156 -49 101 -114 176
-114 132z"/>
<path d="M18090 22421 c-36 -37 -121 -109 -190 -161 -69 -52 -133 -103 -142
-115 -18 -21 -23 -45 -10 -45 17 0 338 219 369 252 40 42 83 107 83 124 0 34
-48 10 -110 -55z"/>
<path d="M18070 22257 c-31 -28 -104 -96 -163 -150 -100 -92 -207 -221 -194
-234 4 -3 37 21 74 54 37 32 117 99 176 147 170 139 217 185 217 212 0 20 -5
24 -27 24 -20 0 -45 -16 -83 -53z"/>
<path d="M18015 22009 c-74 -66 -135 -127 -135 -135 0 -7 2 -14 5 -14 10 0
192 124 247 169 61 49 75 84 38 94 -15 4 -53 -24 -155 -114z"/>
<path d="M13690 21238 c0 -9 126 -282 202 -436 68 -138 101 -183 122 -162 19
19 -91 259 -189 411 -51 79 -135 195 -135 187z"/>
<path d="M12762 21194 c54 -124 162 -258 418 -519 124 -126 240 -247 258 -268
21 -25 38 -37 48 -33 19 7 13 16 -136 181 -59 66 -125 141 -147 167 -21 25
-87 106 -148 180 -122 149 -211 245 -268 290 l-38 30 13 -28z"/>
<path d="M14038 21022 c67 -279 95 -366 143 -433 16 -23 24 -27 34 -19 16 13
0 75 -60 250 -36 103 -128 317 -143 332 -4 4 7 -54 26 -130z"/>
<path d="M13430 21005 c0 -29 70 -158 125 -230 55 -72 112 -132 119 -124 2 2
-30 64 -70 137 -70 127 -115 191 -156 220 -15 11 -18 11 -18 -3z"/>
<path d="M48170 23544 c-874 -36 -1675 -172 -2299 -389 -287 -100 -612 -249
-845 -389 -916 -547 -1481 -1407 -1725 -2623 -102 -512 -145 -1128 -123 -1780
16 -458 38 -735 88 -1083 175 -1235 582 -2160 1239 -2815 625 -624 1459 -1009
2610 -1204 810 -137 1929 -155 2815 -45 1682 209 2818 843 3483 1944 376 623
619 1406 727 2341 68 593 84 1364 40 1894 -94 1122 -421 2015 -975 2660 -407
474 -971 844 -1655 1083 -601 210 -1216 328 -2030 388 -203 15 -1124 27 -1350
18z m948 -183 c5 -15 62 -14 62 0 0 9 20 10 73 4 39 -5 101 -8 136 -7 58 1 62
0 45 -14 -18 -15 -18 -15 1 -8 41 14 78 17 71 5 -6 -9 0 -10 21 -4 15 4 39 7
53 6 54 -4 146 -10 169 -12 15 0 21 -6 18 -14 -4 -11 5 -12 39 -7 25 4 47 3
50 -2 3 -4 10 -8 15 -8 6 0 7 5 4 11 -8 11 48 7 220 -17 366 -52 344 -48 290
-55 -32 -4 -53 -2 -57 5 -5 7 -8 5 -8 -5 0 -9 10 -20 23 -24 20 -6 20 -8 3
-12 -10 -3 -21 0 -25 5 -3 6 -13 10 -21 10 -8 -1 -26 0 -40 2 -19 2 -15 4 15
10 25 4 -2 6 -75 7 -84 0 -2331 1 -3050 1 -49 0 -51 -1 -20 -8 l35 -7 -33 -2
c-20 0 -44 7 -57 17 l-24 19 87 16 c48 9 114 19 147 23 33 3 69 8 80 10 11 2
63 7 115 9 111 7 138 10 164 21 15 6 17 4 11 -6 -6 -10 -4 -12 11 -5 32 13
118 25 139 19 11 -3 28 -8 39 -11 13 -4 16 -1 11 7 -6 9 1 10 24 5 17 -4 31
-3 31 2 0 4 33 8 73 9 39 0 94 4 121 9 37 6 50 5 57 -6 6 -10 9 -10 9 -1 0 6
5 12 11 12 5 0 7 -4 4 -10 -4 -6 20 -9 67 -8 61 1 65 2 28 7 l-45 5 60 6 c105
12 819 4 823 -9z m-68 -3346 c643 -117 1004 -526 1114 -1262 60 -395 33 -953
-63 -1337 -178 -708 -613 -1087 -1289 -1125 -827 -46 -1331 322 -1532 1119
-103 407 -128 1001 -60 1410 89 534 315 882 696 1068 138 68 319 119 501 142
116 14 525 5 633 -15z"/>
<path d="M48446 19770 c-303 -35 -512 -125 -681 -295 -177 -178 -277 -412
-332 -772 -27 -178 -24 -708 5 -918 40 -295 97 -498 192 -690 132 -266 325
-436 589 -519 46 -15 85 -25 87 -24 1 2 -8 45 -22 97 -68 263 -89 467 -89 871
0 344 5 411 46 614 143 709 590 1056 1360 1056 87 0 159 3 159 6 0 3 -17 35
-37 71 -149 266 -398 429 -748 489 -108 18 -419 26 -529 14z"/>
<path d="M892 18348 l3 -4903 2083 -3 2083 -2 -4 1517 c-3 947 -9 1567 -15
1648 -6 72 -14 168 -18 215 l-6 85 79 -160 c226 -453 409 -754 762 -1254 247
-349 1306 -1851 1385 -1963 l61 -88 2449 0 c1957 0 2446 3 2439 13 -16 20
-1420 1724 -1493 1812 -37 44 -289 350 -561 680 -272 330 -643 780 -824 1000
-451 545 -454 549 -451 553 2 1 64 9 137 17 1061 117 1805 530 2231 1240 87
145 115 203 181 370 153 390 227 822 227 1335 0 837 -213 1472 -644 1918 -185
192 -375 327 -641 458 -420 205 -899 324 -1580 391 -168 16 -434 18 -4033 20
l-3852 3 2 -4902z m7094 4655 c-10 -10 -6856 -10 -6856 -1 0 5 1544 8 3432 8
1887 0 3428 -3 3424 -7z m-1531 -2487 c633 -62 870 -194 962 -536 28 -102 25
-445 -5 -555 -94 -347 -334 -530 -804 -615 -260 -47 -391 -54 -983 -55 l-560
0 -3 880 c-1 484 0 886 3 894 8 20 1170 9 1390 -13z"/>
<path d="M5290 19625 l0 -645 390 0 390 0 0 356 0 357 556 -5 557 -5 -6 87
c-11 151 -60 267 -137 326 -112 84 -345 137 -720 164 -80 5 -344 10 -587 10
l-443 0 0 -645z"/>
<path d="M25242 18348 l3 -4903 2133 -3 2132 -2 0 4905 0 4905 -2135 0 -2135
0 2 -4902z m4031 4654 c3 -4 -856 -7 -1909 -7 -1053 0 -1914 3 -1914 7 0 5
859 8 1909 8 1051 0 1912 -3 1914 -8z"/>
<path d="M31292 18348 l3 -4903 1895 0 1895 0 -1 1660 c0 1662 -6 2050 -39
2620 -30 511 -70 969 -120 1364 -14 106 -25 199 -25 205 1 6 38 -90 84 -214
236 -635 511 -1275 808 -1880 77 -157 530 -1066 1008 -2020 l868 -1735 2101
-3 2101 -2 0 4905 0 4905 -1891 0 -1891 0 5 -1417 c3 -785 10 -1514 16 -1633
38 -770 78 -1251 145 -1730 14 -96 23 -176 22 -178 -2 -1 -13 26 -26 60 -109
302 -403 1050 -555 1414 -247 591 -254 605 -1515 3182 l-148 302 -2371 0
-2371 0 2 -4902z m4558 4647 c9 -10 9 -15 1 -15 -6 0 -11 3 -11 8 0 4 -970 7
-2155 7 -1185 0 -2155 3 -2155 7 0 5 969 8 2154 8 1902 0 2155 -2 2166 -15z
m5750 7 c0 -4 -718 -7 -1595 -7 -877 0 -1595 3 -1595 7 0 5 718 8 1595 8 877
0 1595 -3 1595 -8z"/>
<path d="M23707 22563 c-4 -3 -7 -2116 -7 -4695 l0 -4688 -1795 0 -1795 0 0
-295 0 -295 2185 0 2185 0 0 4990 0 4990 -383 0 c-211 0 -387 -3 -390 -7z"/>
<path d="M29740 17875 l0 -4695 -1825 0 -1825 0 0 -295 0 -295 2215 0 2215 0
-2 4988 -3 4987 -387 3 -388 2 0 -4695z"/>
<path d="M36620 22561 c0 -5 64 -139 141 -298 78 -158 174 -355 214 -438 40
-82 146 -298 235 -480 234 -477 413 -856 535 -1130 l106 -240 -7 180 c-3 99
-10 306 -14 460 l-7 280 -262 535 c-145 294 -330 671 -411 838 l-148 302 -191
0 c-107 0 -191 -4 -191 -9z"/>
<path d="M42100 17875 l0 -4695 -1925 0 c-1059 0 -1925 -3 -1925 -6 0 -3 66
-136 146 -295 l146 -289 2164 0 2164 0 0 4990 0 4990 -385 0 -385 0 0 -4695z"/>
<path d="M53655 21825 c129 -201 296 -525 380 -740 221 -561 345 -1179 386
-1924 13 -245 7 -977 -10 -1216 -19 -250 -51 -549 -81 -755 -215 -1462 -760
-2528 -1648 -3220 -965 -752 -2360 -1114 -4187 -1087 -945 14 -1703 122 -2393
342 -129 40 -385 133 -437 157 -33 15 43 -47 160 -131 770 -551 1819 -865
3145 -940 934 -53 1913 15 2654 185 1073 245 1900 716 2461 1399 471 575 797
1328 970 2239 96 512 142 1003 152 1641 17 1103 -134 1966 -475 2712 -248 541
-635 1027 -1082 1357 -10 7 -8 1 5 -19z"/>
<path d="M35285 17490 c21 -530 25 -927 25 -2527 l0 -1783 -1585 0 -1585 0 0
-295 0 -295 1975 0 1975 0 -2 1708 -3 1707 -310 620 c-171 341 -352 710 -404
820 l-93 200 7 -155z"/>
<path d="M17400 14875 l0 -1695 -1800 0 -1800 0 0 -295 0 -295 2185 0 2185 0
0 1695 0 1695 415 0 415 0 0 295 0 295 -800 0 -800 0 0 -1695z"/>
<path d="M5290 14512 l0 -1332 -1775 0 -1775 0 0 -295 0 -295 2165 0 2165 0 0
1065 0 1065 -302 427 c-166 236 -341 488 -390 562 l-88 134 0 -1331z"/>
<path d="M7782 13170 c2 -5 93 -137 203 -294 l200 -285 2553 -1 c1460 0 2552
4 2550 9 -1 5 -109 137 -238 295 l-235 286 -2518 0 c-1604 0 -2517 -3 -2515
-10z"/>
<path d="M1320 10730 l0 -1250 360 2 360 3 0 1245 0 1245 -360 3 -360 2 0
-1250z"/>
<path d="M3640 10730 l0 -1250 326 0 325 0 -5 773 c-3 424 -8 816 -13 870 -4
53 -7 97 -6 97 2 0 56 -40 120 -89 100 -74 580 -403 1253 -858 85 -57 229
-155 320 -216 91 -62 319 -217 507 -345 l342 -232 246 0 245 0 0 1250 0 1250
-326 0 -325 0 5 -787 c3 -434 8 -826 12 -872 l6 -84 -64 55 c-117 101 -87 80
-1208 835 -118 79 -451 304 -740 498 l-525 354 -247 1 -248 0 0 -1250z"/>
<path d="M8890 10730 l0 -1250 1003 0 c555 0 1078 5 1172 10 435 26 730 87
945 195 141 71 323 224 427 358 96 125 177 318 209 497 24 142 15 391 -19 522
-139 531 -624 839 -1427 908 -66 6 -580 10 -1212 10 l-1098 0 0 -1250z m2179
800 c208 -19 339 -53 486 -128 163 -84 276 -215 332 -387 21 -66 27 -105 31
-221 5 -151 -5 -236 -40 -339 -84 -252 -321 -405 -728 -470 -205 -33 -339 -39
-935 -39 l-600 -1 -3 785 c-1 432 0 791 3 798 6 15 1278 17 1454 2z"/>
<path d="M14000 11013 c0 -533 5 -1012 10 -1065 22 -222 102 -345 266 -404
163 -60 145 -59 1484 -59 1121 0 1233 1 1322 17 278 50 384 159 418 430 6 52
10 449 10 1065 l0 983 -360 0 -360 0 0 -1020 0 -1020 -1030 0 -1030 0 0 1020
0 1020 -365 0 -365 0 0 -967z"/>
<path d="M19643 11969 c-183 -22 -302 -68 -377 -149 -101 -108 -126 -219 -126
-570 0 -167 5 -264 15 -326 36 -208 142 -320 350 -367 39 -9 84 -19 100 -23
17 -4 528 -10 1138 -13 l1107 -6 1 -285 1 -285 -1099 0 -1098 0 -3 143 c-1 78
-6 142 -10 142 -36 0 -618 -96 -623 -103 -10 -14 1 -195 16 -270 21 -101 60
-180 117 -233 61 -57 126 -87 253 -115 100 -23 101 -23 1250 -27 1202 -4 1340
0 1491 38 195 50 289 146 329 337 22 102 21 655 -1 761 -42 203 -147 302 -377
355 -90 21 -115 21 -1209 24 l-1118 4 0 274 0 275 1023 -2 1022 -3 3 -144 c3
-142 3 -143 25 -138 12 3 51 11 87 17 140 24 496 91 514 96 17 6 18 14 12 100
-22 289 -126 413 -401 475 l-100 23 -1120 2 c-616 1 -1152 -2 -1192 -7z"/>
<path d="M23310 11760 l0 -220 710 0 710 0 0 -1030 0 -1030 365 0 365 0 0
1030 0 1030 720 0 720 0 0 220 0 220 -1795 0 -1795 0 0 -220z"/>
<path d="M27780 10730 l0 -1250 355 0 355 0 0 475 0 475 342 0 342 0 633 -475
632 -475 508 2 507 3 -702 465 c-386 256 -702 468 -702 473 0 4 116 7 258 7
346 0 474 17 608 80 121 58 188 144 214 276 8 40 10 184 8 454 -4 438 -7 457
-71 542 -43 57 -143 123 -225 148 -160 50 -160 50 -1659 50 l-1403 0 0 -1250z
m2544 801 c22 -7 52 -22 67 -34 54 -39 59 -65 59 -299 0 -198 -2 -215 -21
-247 -11 -19 -30 -42 -42 -52 -52 -42 -63 -43 -999 -46 l-898 -4 0 351 0 351
898 -3 c703 -3 905 -7 936 -17z"/>
<path d="M32620 10730 l0 -1250 360 0 360 0 0 1250 0 1250 -360 0 -360 0 0
-1250z"/>
<path d="M34940 10730 l0 -1250 1610 0 1610 0 0 230 0 230 -1247 2 -1248 3 -3
313 -2 312 720 0 720 0 0 210 0 210 -717 2 -718 3 0 280 0 280 1233 3 1232 2
0 210 0 210 -1595 0 -1595 0 0 -1250z"/>
<path d="M40000 11965 c-171 -23 -256 -56 -335 -127 -57 -51 -96 -121 -122
-218 -15 -56 -18 -109 -18 -370 0 -262 3 -314 18 -370 55 -202 150 -282 397
-337 67 -15 199 -17 1185 -22 l1110 -6 0 -285 0 -285 -1097 -3 -1098 -2 0 145
c0 80 -3 145 -7 145 -5 0 -149 -21 -320 -47 l-313 -48 0 -105 c1 -303 108
-459 355 -513 150 -34 272 -37 1375 -37 1087 0 1220 3 1370 35 211 44 309 138
356 340 26 112 27 650 1 763 -46 205 -149 302 -377 354 -94 22 -108 22 -1212
25 l-1118 4 0 274 0 275 1025 0 1025 0 0 -145 0 -146 33 6 c17 3 160 30 317
59 l285 53 3 51 c5 77 -22 214 -56 286 -72 153 -183 216 -442 251 -146 20
-2194 20 -2340 0z"/>
<path d="M46240 10425 l0 -955 255 0 255 0 0 955 0 955 -255 0 -255 0 0 -955z"/>
<path d="M47867 11373 c-4 -3 -7 -433 -7 -955 l0 -948 231 0 231 0 -6 613 c-3
336 -9 636 -12 666 l-6 54 103 -85 c57 -46 318 -241 579 -433 261 -192 617
-453 792 -582 l316 -233 171 0 171 0 0 955 0 955 -225 0 -225 0 0 -547 c0
-302 5 -600 10 -663 5 -63 7 -116 5 -118 -2 -3 -35 24 -73 59 -38 35 -177 142
-308 238 -132 96 -270 198 -309 227 -38 28 -301 221 -584 428 l-514 376 -167
0 c-92 0 -170 -3 -173 -7z"/>
<path d="M51870 11369 c-171 -20 -265 -70 -315 -168 -48 -97 -50 -124 -50
-776 0 -652 2 -679 51 -776 26 -52 81 -105 131 -125 108 -46 129 -47 928 -51
808 -5 932 0 1053 39 52 17 78 33 118 73 79 78 103 179 104 425 l0 136 -250
45 c-138 25 -253 43 -255 40 -3 -2 -5 -94 -5 -203 l0 -198 -685 0 -685 0 0
605 0 605 685 0 685 0 0 -180 0 -181 33 6 c32 5 466 65 473 65 8 0 3 229 -6
295 -17 116 -37 164 -95 221 -61 61 -131 87 -280 104 -110 12 -1527 11 -1635
-1z"/>
<path d="M44190 10207 c-59 -20 -65 -44 -68 -283 -4 -228 3 -275 42 -321 l24
-28 206 -3 c113 -2 206 -6 206 -9 0 -4 -465 -685 -493 -720 -7 -10 28 -13 169
-12 l179 0 298 360 297 360 0 247 c0 298 -7 356 -50 395 l-30 27 -373 -1
c-261 0 -382 -4 -407 -12z"/>
<path d="M54817 10033 c-55 -9 -61 -35 -62 -257 0 -111 4 -218 8 -239 14 -65
37 -69 331 -65 178 2 257 7 273 16 12 7 27 29 33 50 13 48 13 386 0 434 -19
67 -24 68 -305 67 -137 -1 -262 -4 -278 -6z"/>
<path d="M2781 8585 c-1 -38 -8 -146 -16 -240 -71 -802 -266 -1560 -609 -2363
-171 -401 -341 -739 -754 -1502 -209 -387 -377 -725 -440 -888 -117 -300 -165
-558 -165 -877 1 -455 127 -865 384 -1246 288 -429 718 -729 1189 -830 141
-31 456 -34 594 -6 535 109 1035 516 1311 1067 126 253 183 475 192 761 10
309 -41 615 -166 997 -80 241 -89 261 -119 268 -202 44 -323 90 -435 164 -148
97 -244 208 -321 371 -58 122 -84 225 -97 382 -22 252 28 485 147 687 l35 61
-51 130 c-405 1029 -616 1966 -669 2979 -4 87 -9 124 -10 85z"/>
<path d="M5330 8409 c-118 -20 -160 -68 -168 -194 l-4 -73 28 -6 c28 -6 229
-36 239 -36 3 0 5 32 5 71 l0 70 373 -3 c276 -2 378 -6 394 -16 23 -13 43 -67
43 -117 0 -51 -20 -104 -43 -117 -15 -8 -96 -13 -256 -15 -129 -2 -237 -6
-240 -9 -3 -3 -6 -40 -6 -82 l0 -77 270 -5 c149 -3 278 -9 287 -13 27 -13 40
-72 36 -154 -6 -121 25 -113 -454 -113 -222 0 -407 -1 -411 -2 -5 -2 -9 32
-11 74 l-3 77 -27 -5 c-15 -3 -74 -13 -132 -22 l-105 -18 0 -89 c0 -72 4 -97
20 -124 50 -85 125 -94 743 -89 528 5 550 7 610 69 43 44 54 97 50 237 -3 104
-6 125 -24 149 -39 53 -95 83 -189 102 -75 16 -85 20 -60 25 191 42 230 91
223 278 -6 163 -39 205 -178 227 -80 13 -932 13 -1010 0z"/>
<path d="M7345 8413 c-104 -14 -165 -58 -185 -131 -14 -55 -14 -769 0 -824 7
-25 26 -55 46 -74 60 -57 79 -59 714 -59 634 0 655 2 712 62 51 53 52 63 56
451 4 419 0 457 -57 513 -63 63 -57 63 -686 65 -313 1 -583 0 -600 -3z m1063
-535 l2 -358 -490 -2 -490 -3 0 363 0 362 488 -2 487 -3 3 -357z"/>
<path d="M9534 8409 c-164 -21 -250 -69 -288 -161 -19 -45 -22 -286 -5 -339
41 -120 143 -163 424 -179 155 -9 507 2 651 20 42 5 80 8 82 5 9 -9 -15 -49
-56 -96 -108 -121 -303 -173 -702 -186 l-206 -6 86 -84 85 -84 185 5 c261 7
436 43 590 122 88 45 115 64 181 129 65 64 111 144 134 230 21 83 21 371 -1
444 -32 109 -114 162 -282 181 -101 11 -788 11 -878 -1z m708 -178 c153 -17
181 -48 182 -211 l1 -95 -80 -9 c-44 -4 -226 -9 -405 -10 -284 -1 -330 1 -362
16 -54 24 -71 64 -66 158 6 144 38 156 428 158 118 1 254 -2 302 -7z"/>
<path d="M12355 8410 c-133 -21 -175 -69 -175 -201 0 -78 -10 -70 120 -89 41
-6 89 -13 107 -16 l32 -6 3 68 3 69 320 3 c487 5 485 5 485 -124 0 -82 -12
-119 -44 -130 -11 -4 -127 -8 -256 -9 l-235 -3 -3 -86 -3 -85 275 -3 c336 -4
316 5 316 -138 0 -67 -4 -102 -14 -116 -14 -18 -32 -19 -435 -22 l-421 -3 0
75 0 75 -37 -6 c-21 -3 -83 -13 -138 -22 l-100 -17 2 -68 c3 -142 27 -184 121
-213 51 -16 110 -18 582 -18 470 0 531 2 581 17 113 35 139 78 146 238 6 118
-5 174 -42 218 -31 37 -110 71 -200 87 l-70 12 61 13 c76 15 141 48 168 84 19
25 21 41 21 171 0 129 -2 146 -21 172 -27 38 -80 63 -156 74 -75 10 -922 10
-993 -1z"/>
<path d="M14391 8409 c-110 -19 -148 -60 -164 -178 -6 -44 -8 -83 -5 -86 5 -5
236 -44 261 -45 4 0 7 32 7 70 l0 70 348 0 c191 0 365 -5 386 -10 63 -14 71
-29 71 -126 0 -77 -2 -88 -22 -104 -29 -23 -172 -35 -338 -27 -66 3 -132 3
-147 0 -28 -5 -28 -6 -28 -89 l0 -84 260 0 c339 0 330 4 330 -146 0 -77 -2
-87 -25 -109 l-24 -25 -411 0 -410 0 0 75 0 76 -32 -6 c-18 -3 -80 -14 -138
-23 l-105 -18 1 -74 c0 -93 7 -120 40 -159 51 -61 77 -64 595 -69 639 -5 715
6 767 108 19 39 22 59 22 173 0 153 -11 185 -77 227 -39 25 -131 53 -203 63
-17 2 -6 7 35 16 33 7 82 24 108 38 70 35 86 76 87 218 0 95 -3 117 -22 155
-27 54 -69 77 -160 91 -81 11 -936 10 -1007 -2z"/>
<path d="M16240 8230 l0 -189 33 -6 c38 -6 235 -35 242 -35 2 0 6 53 7 118 l3
117 453 3 c248 1 452 0 452 -3 0 -2 -164 -212 -365 -466 -201 -253 -365 -462
-365 -465 0 -2 75 -4 168 -4 l167 0 120 157 c66 87 192 252 279 368 87 115
194 256 237 312 l79 102 0 91 0 90 -755 0 -755 0 0 -190z"/>
<path d="M19311 8409 c-79 -14 -127 -44 -153 -98 -22 -45 -23 -56 -26 -411 -4
-395 1 -448 45 -500 36 -43 67 -57 157 -69 97 -14 1031 -14 1135 -1 92 12 148
42 175 95 20 38 21 57 24 429 2 332 0 396 -13 436 -19 56 -45 83 -105 107 -41
16 -97 18 -615 19 -313 1 -594 -2 -624 -7z m1079 -531 l0 -363 -487 2 -488 3
-3 360 -2 360 490 0 490 0 0 -362z"/>
<path d="M21380 8409 c-77 -13 -120 -38 -144 -85 -18 -33 -21 -57 -21 -166 0
-112 2 -130 21 -154 33 -45 67 -65 151 -89 61 -18 73 -24 53 -28 -14 -3 -48
-11 -77 -17 -67 -15 -137 -60 -160 -102 -14 -26 -18 -57 -18 -148 0 -63 4
-132 8 -152 11 -54 50 -94 115 -120 56 -22 65 -22 567 -26 554 -4 668 2 744
40 74 37 91 81 91 242 0 120 -2 132 -25 172 -18 31 -39 49 -77 67 -42 20 -127
43 -177 48 -3 0 28 9 69 20 91 23 141 55 164 104 15 30 17 59 14 165 -3 111
-6 132 -24 157 -27 38 -80 63 -156 74 -81 11 -1046 10 -1118 -2z m945 -179
c60 -14 75 -39 75 -125 0 -132 -1 -133 -440 -134 -321 -1 -427 7 -447 35 -28
38 -28 160 1 199 6 9 28 20 46 25 49 11 716 12 765 0z m53 -441 c42 -15 55
-52 50 -150 -5 -128 32 -119 -484 -119 -508 0 -473 -8 -475 108 -2 128 3 145
46 162 31 13 826 12 863 -1z"/>
<path d="M23523 8410 c-66 -10 -121 -37 -147 -73 -18 -24 -21 -46 -24 -151
l-4 -123 109 -22 c59 -12 118 -24 130 -27 22 -6 22 -4 25 107 l3 114 390 0
390 0 -3 -75 c-2 -41 -4 -76 -5 -76 -1 -1 -221 -110 -488 -242 -268 -131 -508
-254 -533 -272 -70 -48 -86 -80 -86 -173 l0 -78 643 4 c675 3 687 4 750 49 42
30 58 80 55 172 l-3 79 -100 23 c-145 33 -135 37 -135 -51 l0 -75 -372 -1
c-205 0 -381 -2 -390 -4 -10 -2 -20 0 -23 4 -2 5 75 47 173 94 459 221 698
344 733 377 56 54 73 150 49 281 -12 63 -53 109 -117 130 -44 15 -932 23
-1020 9z"/>
<path d="M25300 8231 l0 -189 28 -6 c24 -5 246 -36 257 -36 3 0 5 54 5 120 l0
120 451 0 c289 0 449 -4 447 -10 -1 -5 -160 -208 -353 -452 -192 -243 -356
-450 -363 -460 -13 -17 -5 -18 157 -18 l170 0 297 393 c164 215 326 429 361
475 l63 83 0 84 0 85 -760 0 -760 0 0 -189z"/>
<path d="M31260 7870 l0 -550 150 0 150 0 -1 293 c0 160 -4 330 -8 377 -4 47
-6 87 -5 89 2 2 20 -9 40 -24 20 -15 285 -187 588 -381 l551 -354 118 0 117 0
-2 548 -3 547 -145 0 -145 0 0 -381 0 -381 -50 38 c-27 20 -295 193 -594 383
l-543 346 -109 0 -109 0 0 -550z"/>
<path d="M34078 8198 c-517 -696 -635 -854 -642 -865 -6 -10 28 -13 156 -13
l164 0 83 120 83 120 462 0 461 -1 85 -119 85 -120 182 0 c101 0 183 2 183 5
0 3 -184 249 -409 548 l-408 542 -159 3 -160 2 -166 -222z m470 -217 c84 -120
152 -222 152 -225 0 -3 -142 -6 -316 -6 -263 0 -315 2 -311 14 3 7 47 71 99
142 51 71 120 166 152 212 33 45 62 82 66 82 3 0 74 -99 158 -219z"/>
<path d="M35802 7948 l3 -473 25 -45 c31 -55 82 -85 170 -99 87 -14 1143 -14
1230 0 93 15 140 43 170 104 l25 50 3 468 3 467 -166 0 -165 0 0 -450 0 -450
-485 0 -485 0 0 450 0 450 -165 0 -166 0 3 -472z"/>
<path d="M37830 8417 c0 -2 186 -249 413 -548 l414 -544 119 -2 119 -3 210
292 c116 161 292 406 393 546 100 139 182 255 182 257 0 3 -71 5 -158 5 -139
0 -161 -2 -174 -17 -9 -10 -134 -187 -278 -393 -144 -206 -266 -379 -270 -383
-4 -5 -139 172 -301 392 l-294 401 -187 0 c-104 0 -188 -2 -188 -3z"/>
<path d="M40320 8410 c-156 -14 -212 -42 -246 -122 -15 -38 -18 -83 -22 -358
-5 -439 8 -519 94 -567 73 -41 143 -44 839 -41 595 3 665 5 712 21 61 20 107
69 123 127 7 27 10 168 8 418 -3 366 -4 378 -25 418 -26 50 -54 69 -130 91
-51 14 -135 16 -663 19 -333 1 -643 -1 -690 -6z m1180 -540 l0 -350 -555 0
-555 0 0 350 0 350 555 0 555 0 0 -350z"/>
<path d="M42780 8411 c-141 -13 -197 -38 -233 -105 -21 -40 -22 -52 -25 -418
-3 -410 -1 -436 49 -492 62 -72 47 -70 788 -74 709 -3 774 0 847 43 85 50 97
126 92 565 -3 313 -3 315 -28 364 -31 61 -60 84 -136 103 -49 13 -158 16 -664
18 -333 2 -643 0 -690 -4z m1188 -451 c2 -140 1 -297 -3 -347 l-7 -93 -554 0
-554 0 0 350 0 350 558 -2 557 -3 3 -255z"/>
<path d="M47025 8408 c-3 -7 -4 -254 -3 -548 l3 -535 168 -3 167 -2 -2 547 -3
548 -163 3 c-124 2 -164 0 -167 -10z"/>
<path d="M48107 8413 c-4 -3 -7 -251 -7 -550 l0 -543 710 0 710 0 0 100 0 100
-545 0 -545 0 0 450 0 450 -158 0 c-87 0 -162 -3 -165 -7z"/>
<path d="M11120 7890 l0 -110 305 0 305 0 0 110 0 110 -305 0 -305 0 0 -110z"/>
<path d="M18130 7890 l0 -110 305 0 305 0 0 110 0 110 -305 0 -305 0 0 -110z"/>
<path d="M44902 7628 c-8 -8 -12 -50 -12 -124 0 -144 0 -144 126 -144 52 0 94
-2 94 -5 0 -3 -49 -72 -110 -155 -60 -82 -110 -154 -110 -159 0 -7 150 -5 156
2 1 1 61 69 133 152 l131 149 0 136 c0 92 -4 140 -12 148 -8 8 -67 12 -198 12
-131 0 -190 -4 -198 -12z"/>
<path d="M12680 5830 c-98 -10 -152 -25 -223 -63 -142 -75 -216 -231 -217
-459 l0 -78 -104 0 c-96 0 -107 -2 -133 -24 -26 -23 -28 -29 -28 -104 0 -71 3
-83 24 -106 23 -25 29 -26 133 -26 l108 0 0 -521 c0 -314 4 -527 10 -538 17
-32 69 -46 175 -46 106 0 158 14 175 46 6 11 10 224 10 538 l0 521 169 0 c155
0 170 2 195 21 14 11 26 27 26 35 0 8 5 14 10 14 6 0 10 -6 10 -13 0 -8 10
-23 23 -35 21 -20 34 -22 130 -22 l107 0 0 -521 c0 -314 4 -527 10 -538 17
-32 69 -46 175 -46 106 0 158 14 175 46 6 11 10 224 10 538 l0 521 169 0 c162
0 171 1 196 23 47 40 47 166 0 213 -24 23 -28 24 -195 24 l-170 0 0 73 c0 244
84 306 331 245 83 -21 88 -21 114 -4 31 20 45 53 45 104 0 57 -18 109 -46 131
-38 30 -155 53 -274 53 -135 0 -218 -15 -307 -58 -155 -74 -232 -228 -233
-466 l0 -78 -103 0 c-113 0 -140 -10 -158 -59 l-11 -26 -13 32 c-7 17 -22 36
-34 42 -12 7 -86 11 -187 11 l-167 0 5 110 c8 169 43 218 162 227 49 4 90 0
161 -18 l95 -23 28 21 c53 40 55 171 3 224 -46 46 -230 74 -381 59z"/>
<path d="M44376 5821 c-36 -5 -55 -15 -72 -35 l-24 -27 0 -909 c0 -654 3 -916
11 -934 18 -38 62 -51 174 -51 106 0 158 14 175 46 6 11 10 366 10 933 l0 915
-23 27 c-33 38 -129 51 -251 35z"/>
<path d="M18711 5730 c-91 -19 -125 -66 -124 -173 0 -77 16 -108 74 -142 28
-17 52 -20 139 -20 87 0 111 3 139 20 59 35 76 67 75 144 0 82 -23 128 -77
154 -43 22 -162 30 -226 17z"/>
<path d="M35787 5730 c-93 -24 -127 -70 -127 -173 0 -66 25 -115 70 -142 51
-29 227 -29 284 1 57 29 78 74 74 156 -4 78 -24 113 -81 141 -43 22 -164 31
-220 17z"/>
<path d="M48217 5730 c-93 -24 -127 -70 -127 -173 0 -111 53 -158 185 -165
109 -6 185 15 217 61 19 27 23 45 23 109 0 88 -17 121 -78 151 -43 22 -164 31
-220 17z"/>
<path d="M41310 5714 c-287 -37 -460 -136 -548 -313 -36 -72 -37 -79 -37 -180
0 -98 2 -111 31 -171 39 -82 106 -157 192 -214 82 -54 137 -79 367 -165 210
-80 291 -118 344 -166 51 -46 64 -82 59 -154 -9 -123 -115 -199 -308 -221
-158 -18 -335 15 -537 101 -106 45 -132 48 -168 16 -48 -41 -53 -175 -8 -235
54 -73 283 -144 515 -161 270 -19 509 30 673 140 129 87 205 199 225 335 33
215 -79 391 -325 509 -60 29 -186 81 -280 115 -202 74 -291 119 -345 172 -47
47 -63 96 -50 152 25 112 129 166 320 166 125 0 212 -19 356 -80 113 -47 133
-49 171 -16 24 21 28 32 31 94 5 85 -10 135 -49 163 -42 30 -172 75 -270 94
-84 16 -293 27 -359 19z"/>
<path d="M4195 5694 c-436 -79 -718 -361 -774 -777 -33 -240 15 -505 121 -669
91 -141 235 -258 390 -318 154 -59 241 -74 458 -74 169 -1 209 2 299 22 183
41 338 107 386 164 45 54 45 189 0 234 -35 35 -69 30 -183 -25 -172 -85 -243
-103 -418 -109 -131 -4 -161 -2 -235 17 -120 30 -184 65 -260 140 -117 117
-163 251 -162 471 1 213 51 362 161 481 67 72 126 110 227 145 73 26 93 28
230 28 183 1 250 -16 433 -106 137 -67 165 -69 205 -17 44 60 30 198 -25 245
-73 60 -231 120 -397 148 -117 20 -345 20 -456 0z"/>
<path d="M10663 5675 c-18 -8 -42 -29 -53 -47 -20 -32 -20 -48 -20 -846 0
-912 -4 -857 73 -893 40 -18 74 -19 609 -19 l568 0 31 28 c24 21 32 38 36 74
7 65 -4 116 -32 144 l-24 24 -441 0 -440 0 0 275 0 275 374 0 374 0 27 32 c25
30 27 37 23 106 -3 66 -6 77 -31 98 l-28 24 -370 0 -369 0 0 235 0 235 429 0
c417 0 429 1 454 21 55 42 60 160 11 219 l-26 30 -571 0 c-469 -1 -578 -3
-604 -15z"/>
<path d="M23629 5671 c-67 -37 -64 0 -64 -898 0 -805 0 -812 21 -840 11 -15
36 -36 55 -46 32 -17 62 -18 419 -14 410 5 505 15 674 67 392 122 601 392 622
805 10 201 -30 375 -122 522 -106 170 -256 279 -489 356 -163 54 -217 59 -665
63 -397 4 -417 3 -451 -15z m741 -261 c316 -36 515 -189 575 -441 36 -153 13
-385 -52 -519 -37 -76 -141 -179 -223 -218 -130 -63 -197 -75 -477 -80 l-253
-4 0 629 c0 346 3 633 7 636 10 11 327 8 423 -3z"/>
<path d="M8710 5549 c-57 -23 -60 -31 -60 -181 l0 -138 -104 0 c-95 0 -107 -2
-131 -23 -50 -43 -52 -161 -4 -213 20 -21 31 -24 128 -26 l106 -3 5 -405 c6
-438 7 -449 65 -539 72 -113 212 -171 415 -171 172 0 273 26 313 82 43 59 28
190 -25 216 -24 11 -38 10 -101 -7 -91 -26 -169 -26 -223 -2 -71 32 -73 46
-74 448 0 191 -1 356 0 366 0 16 16 17 191 17 117 0 198 4 211 11 44 24 61
119 33 186 -26 61 -30 62 -242 63 l-193 0 0 23 c0 12 -2 72 -4 134 -3 122 -9
137 -63 160 -38 15 -205 17 -243 2z"/>
<path d="M17553 5545 c-40 -17 -55 -65 -53 -178 1 -45 1 -94 1 -109 l-1 -28
-96 0 c-128 0 -157 -16 -170 -97 -9 -59 3 -111 31 -139 22 -22 32 -24 130 -24
93 0 105 -2 105 -17 0 -10 1 -187 4 -393 4 -395 7 -424 54 -516 45 -89 156
-160 286 -185 72 -13 241 -11 318 5 80 18 122 38 144 71 20 31 22 131 4 175
-20 48 -47 53 -143 29 -93 -25 -191 -22 -233 6 -57 37 -59 56 -59 455 l0 365
196 3 c192 2 196 3 218 26 48 51 46 170 -4 213 -25 22 -33 23 -221 23 l-194 0
0 131 c0 74 -5 139 -11 151 -6 11 -26 26 -44 34 -45 19 -218 18 -262 -1z"/>
<path d="M31685 5545 c-16 -9 -32 -18 -35 -21 -3 -3 -7 -69 -10 -147 l-5 -142
-105 -5 c-58 -3 -113 -9 -122 -14 -20 -9 -48 -76 -48 -114 0 -41 18 -98 37
-113 10 -9 55 -16 127 -19 l111 -5 5 -410 c5 -397 6 -412 28 -466 27 -68 88
-140 146 -174 69 -41 185 -65 305 -65 167 0 282 31 317 86 21 32 24 128 5 172
-21 50 -48 56 -144 31 -91 -24 -190 -22 -231 4 -12 9 -32 33 -42 54 -18 35
-19 65 -19 403 l0 365 195 3 c193 2 194 3 221 28 51 49 47 171 -8 213 -24 20
-39 21 -219 21 l-193 0 -3 141 -3 142 -28 21 c-24 18 -45 21 -140 24 -88 2
-118 -1 -142 -13z"/>
<path d="M47070 5549 c-58 -24 -60 -31 -60 -181 l0 -138 -106 0 c-103 0 -106
-1 -135 -29 -27 -27 -29 -35 -29 -99 0 -61 3 -75 26 -101 25 -30 27 -30 132
-33 l107 -3 5 -405 c5 -394 6 -407 29 -463 32 -80 77 -136 141 -175 94 -56
146 -67 320 -67 179 0 247 15 295 65 55 58 42 206 -21 230 -20 8 -43 6 -98
-10 -141 -39 -244 -19 -277 54 -17 38 -19 72 -19 409 l0 367 195 0 c193 0 196
0 220 24 46 46 45 163 -2 210 l-26 26 -193 0 -192 0 -4 135 c-3 132 -4 135
-31 162 -26 27 -32 28 -140 30 -61 2 -123 -2 -137 -8z"/>
<path d="M5965 5250 c-233 -26 -439 -125 -542 -262 -100 -133 -134 -231 -141
-409 -5 -144 7 -232 45 -329 95 -239 312 -375 636 -399 225 -16 412 15 577 95
156 77 274 210 328 370 48 141 50 318 5 474 -53 186 -166 312 -351 394 -129
57 -375 86 -557 66z m248 -270 c157 -30 253 -118 292 -270 25 -95 17 -282 -15
-365 -32 -82 -114 -164 -194 -194 -184 -69 -420 -38 -526 68 -78 78 -110 174
-110 326 0 202 71 336 212 400 31 14 76 30 100 34 62 13 175 13 241 1z"/>
<path d="M7605 5246 c-223 -36 -372 -133 -426 -275 -31 -82 -24 -196 16 -270
61 -112 160 -170 439 -262 250 -83 296 -112 296 -192 0 -89 -106 -140 -286
-139 -115 0 -201 20 -332 76 -98 42 -122 44 -158 13 -23 -20 -28 -34 -32 -86
-3 -43 1 -75 12 -106 15 -39 25 -48 79 -75 127 -62 345 -94 532 -80 115 10
132 13 237 47 139 44 240 128 290 239 33 74 31 190 -4 266 -58 124 -159 186
-460 283 -243 78 -308 123 -294 199 14 76 99 116 245 116 100 0 184 -18 283
-60 79 -34 104 -37 135 -15 52 37 55 174 4 225 -77 78 -380 128 -576 96z"/>
<path d="M14743 5249 c-325 -42 -538 -208 -622 -484 -34 -115 -36 -323 -2
-440 65 -231 227 -382 476 -446 270 -68 800 -15 907 92 25 25 28 34 28 99 0
66 -2 74 -29 101 -16 16 -38 29 -48 29 -10 0 -65 -14 -123 -30 -149 -43 -256
-60 -384 -60 -134 0 -212 13 -285 47 -102 49 -164 135 -177 248 l-7 54 509 3
c565 3 551 2 595 71 18 28 20 43 15 132 -12 244 -117 411 -319 510 -145 70
-348 99 -534 74z m299 -274 c93 -33 168 -125 184 -224 l7 -41 -377 0 -376 0 6
28 c27 120 119 210 254 249 61 17 240 11 302 -12z"/>
<path d="M16499 5250 c-332 -30 -548 -196 -631 -487 -33 -113 -32 -342 1 -458
56 -198 190 -342 383 -411 134 -47 350 -60 512 -30 169 32 330 107 361 167 17
33 20 145 5 185 -27 71 -67 70 -221 -9 -147 -75 -214 -92 -337 -84 -109 7
-168 27 -227 79 -86 76 -125 180 -125 338 0 251 94 396 281 436 135 29 289 -2
431 -86 75 -45 122 -53 162 -27 41 27 56 106 35 181 -14 52 -58 92 -144 132
-106 49 -166 62 -360 78 -22 2 -79 0 -126 -4z"/>
<path d="M21532 5250 c-113 -15 -189 -37 -291 -87 -166 -82 -287 -229 -337
-413 -21 -79 -29 -251 -15 -340 47 -299 224 -474 546 -541 106 -23 352 -27
485 -9 124 16 289 57 335 83 50 28 65 57 65 127 0 64 -15 99 -51 119 -25 14
-38 12 -160 -22 -184 -50 -261 -60 -419 -55 -146 5 -216 23 -292 73 -70 47
-120 140 -130 242 l-3 33 505 2 c482 3 507 4 545 23 62 31 78 71 71 178 -20
306 -181 497 -479 567 -98 23 -274 32 -375 20z m316 -285 c92 -41 148 -115
166 -217 l7 -38 -376 0 c-233 0 -375 4 -375 10 0 28 45 122 75 158 78 90 172
124 331 119 94 -4 119 -8 172 -32z"/>
<path d="M26249 5250 c-268 -34 -479 -169 -578 -370 -52 -107 -71 -195 -71
-336 0 -183 33 -303 116 -421 115 -162 312 -254 587 -272 267 -18 628 42 700
117 53 55 45 187 -13 217 -39 20 -42 20 -156 -15 -250 -77 -533 -81 -677 -9
-95 48 -155 134 -172 251 l-7 47 508 3 c558 3 544 2 593 64 18 22 21 40 21
113 -1 305 -168 514 -472 590 -88 23 -283 33 -379 21z m302 -279 c95 -36 162
-119 176 -216 l6 -45 -372 0 c-421 0 -391 -7 -351 84 38 90 136 170 237 196
66 16 241 6 304 -19z"/>
<path d="M30415 5253 c-202 -17 -443 -90 -498 -151 -46 -50 -41 -167 8 -209
36 -32 62 -29 177 17 149 60 242 80 379 80 145 0 210 -17 260 -70 36 -38 59
-109 59 -185 l0 -32 -197 -6 c-275 -9 -418 -35 -560 -103 -89 -43 -165 -115
-201 -191 -24 -51 -27 -70 -26 -153 1 -112 19 -164 84 -234 87 -95 214 -149
385 -165 176 -16 318 9 457 81 46 24 86 44 91 46 4 2 7 -12 7 -31 0 -65 37
-82 172 -82 73 0 92 4 115 21 l28 21 3 464 c3 530 0 563 -67 666 -81 126 -212
189 -441 213 -92 9 -153 10 -235 3z m383 -892 c2 -65 -1 -98 -10 -109 -23 -28
-157 -110 -211 -129 -37 -13 -81 -18 -152 -18 -85 0 -107 4 -147 23 -55 27
-83 62 -93 114 -9 50 22 118 66 146 77 47 234 71 449 68 l95 -1 3 -94z"/>
<path d="M33260 5250 c-105 -13 -189 -38 -288 -86 -163 -79 -278 -215 -334
-394 -20 -65 -23 -96 -23 -230 0 -134 3 -165 23 -230 77 -247 250 -388 543
-445 223 -43 655 0 810 80 56 29 77 123 44 200 -24 59 -50 62 -200 21 -165
-44 -246 -56 -387 -56 -208 0 -334 51 -404 162 -23 36 -59 159 -52 179 2 5
230 10 508 11 467 3 508 4 542 21 60 30 72 58 71 164 -3 179 -54 307 -166 417
-84 83 -181 135 -309 166 -95 23 -282 33 -378 20z m258 -264 c130 -35 198
-106 221 -233 l8 -43 -373 0 c-427 0 -395 -9 -346 95 29 61 86 121 141 150 85
43 247 58 349 31z"/>
<path d="M35096 5250 c-66 -12 -182 -70 -238 -120 -25 -22 -49 -40 -52 -40 -3
0 -6 23 -8 51 -3 44 -8 55 -31 73 -25 18 -42 21 -131 21 -113 0 -152 -12 -167
-53 -14 -36 -12 -1235 2 -1266 18 -38 62 -51 174 -51 106 0 158 14 175 46 6
10 10 181 10 419 l0 401 86 89 c109 113 164 143 262 142 37 -1 90 -8 117 -16
71 -22 93 -20 127 14 30 30 30 31 26 126 -3 90 -5 97 -30 119 -46 39 -219 64
-322 45z"/>
<path d="M37230 5251 c-115 -17 -238 -65 -337 -132 -23 -16 -44 -29 -47 -29
-3 0 -6 19 -6 43 0 79 -44 107 -170 107 -36 0 -82 -5 -102 -10 -72 -20 -68 16
-68 -680 0 -708 -6 -661 80 -679 106 -23 224 -9 266 30 l24 22 0 429 0 428 73
60 c39 33 105 77 146 97 71 37 78 38 175 38 89 0 108 -3 151 -26 29 -14 61
-42 77 -65 53 -76 58 -120 58 -555 0 -219 3 -405 6 -414 16 -40 135 -65 249
-50 45 5 65 13 87 36 l29 29 -4 442 c-5 480 -6 495 -62 613 -77 161 -248 257
-480 269 -49 3 -115 1 -145 -3z"/>
<path d="M43005 5249 c-342 -34 -583 -215 -661 -497 -25 -87 -30 -291 -10
-388 62 -304 298 -485 669 -513 225 -16 412 15 577 95 78 39 109 61 176 129
135 136 187 271 187 490 0 216 -53 355 -183 485 -117 117 -255 175 -474 199
-106 12 -163 12 -281 0z m320 -288 c68 -24 116 -60 162 -120 53 -68 68 -135
68 -296 0 -124 -3 -147 -24 -200 -33 -82 -115 -164 -195 -194 -184 -69 -416
-39 -524 67 -80 78 -112 173 -112 330 0 238 109 389 312 432 73 15 245 5 313
-19z"/>
<path d="M49508 5249 c-121 -13 -204 -36 -317 -91 -177 -85 -287 -218 -342
-413 -19 -65 -23 -105 -23 -210 0 -218 51 -353 184 -485 101 -101 224 -160
399 -190 97 -17 341 -14 441 5 233 45 420 168 514 339 64 114 81 191 81 361 0
129 -3 161 -23 225 -85 272 -296 425 -633 460 -113 11 -168 11 -281 -1z m309
-283 c111 -35 195 -120 231 -235 27 -87 23 -297 -6 -372 -57 -144 -159 -218
-330 -239 -159 -21 -305 16 -395 99 -122 113 -152 391 -60 574 47 94 130 156
247 183 76 17 240 12 313 -10z"/>
<path d="M51515 5251 c-116 -19 -264 -78 -342 -137 -17 -13 -34 -24 -37 -24
-3 0 -6 16 -6 35 0 88 -55 120 -195 113 -65 -3 -92 -9 -113 -25 l-27 -20 -3
-635 c-2 -599 -1 -637 16 -658 43 -53 273 -54 326 0 21 20 21 30 26 452 l5
432 70 59 c38 32 103 75 144 95 71 35 80 37 175 37 79 0 109 -4 136 -19 82
-43 123 -104 140 -207 5 -36 10 -232 10 -450 0 -436 -5 -409 80 -428 91 -21
225 -8 262 26 17 15 18 49 18 463 0 411 -2 453 -20 523 -58 229 -239 357 -525
371 -49 3 -113 1 -140 -3z"/>
<path d="M53027 5249 c-159 -18 -298 -80 -381 -170 -67 -72 -91 -135 -90 -236
1 -93 34 -163 108 -230 76 -69 132 -96 353 -169 192 -63 283 -107 303 -145 15
-28 12 -71 -9 -105 -26 -42 -94 -73 -184 -83 -141 -16 -245 5 -478 95 -87 34
-133 -10 -131 -126 1 -65 19 -110 54 -132 97 -61 279 -100 473 -99 212 0 350
34 475 117 113 74 161 155 168 280 6 111 -13 167 -84 243 -68 74 -150 115
-384 191 -188 61 -239 84 -282 123 -54 50 -29 134 50 170 40 19 65 22 172 22
131 0 148 -4 281 -57 84 -34 114 -33 149 4 16 17 20 35 20 90 0 83 -15 116
-67 145 -51 29 -167 60 -273 73 -94 11 -143 11 -243 -1z"/>
<path d="M38715 5236 c-142 -33 -280 -107 -341 -183 -119 -147 -135 -350 -41
-491 l33 -49 -34 -39 c-86 -99 -116 -229 -72 -318 12 -26 39 -61 60 -78 l37
-32 -58 -54 c-70 -64 -109 -138 -116 -219 -17 -185 112 -305 391 -365 138 -30
502 -32 640 -5 299 60 478 205 493 400 16 199 -138 344 -412 387 -33 5 -183
14 -334 20 -284 10 -339 18 -371 50 -15 15 -17 25 -10 51 15 50 22 52 96 29
131 -40 338 -43 485 -5 159 41 297 141 352 255 50 103 54 246 9 338 l-19 40
82 4 c64 2 88 7 104 22 48 43 51 151 6 204 l-23 27 -274 7 c-150 4 -352 9
-448 12 -129 4 -191 2 -235 -8z m322 -251 c107 -32 163 -101 163 -200 -1 -101
-64 -181 -167 -211 -70 -20 -218 -15 -278 10 -84 36 -125 96 -125 183 1 112
60 190 170 224 44 13 184 10 237 -6z m29 -1040 c136 -5 203 -22 247 -63 26
-24 28 -32 24 -76 -4 -41 -11 -55 -39 -82 -66 -60 -199 -94 -368 -94 -168 0
-315 33 -363 81 -25 26 -29 35 -24 69 6 49 36 90 99 140 l49 40 127 -5 c70 -3
182 -7 248 -10z"/>
<path d="M18690 5229 c-74 -22 -70 22 -70 -678 0 -542 2 -629 15 -648 21 -30
110 -47 209 -40 86 6 125 25 137 68 9 30 9 1194 0 1233 -11 52 -47 69 -158 72
-54 2 -114 -1 -133 -7z"/>
<path d="M19283 5229 c-41 -12 -67 -50 -60 -87 6 -30 543 -1209 561 -1231 22
-27 82 -43 181 -48 122 -6 211 8 243 40 12 13 144 288 293 612 292 635 300
656 251 695 -30 24 -94 34 -190 28 -135 -8 -111 27 -342 -507 -112 -259 -207
-471 -210 -471 -4 0 -98 208 -209 463 -112 254 -209 469 -217 478 -9 10 -35
22 -59 28 -52 13 -197 13 -242 0z"/>
<path d="M27323 5229 c-48 -14 -68 -49 -56 -97 10 -38 442 -1139 471 -1201 21
-46 66 -62 187 -68 132 -7 212 8 246 45 18 20 61 135 152 402 70 206 131 380
135 386 4 7 65 -146 136 -340 71 -193 140 -374 152 -403 34 -79 57 -88 234
-88 210 0 200 -8 294 231 30 77 134 339 231 583 191 483 195 496 142 535 -25
19 -42 21 -147 21 -104 0 -122 -3 -146 -20 -23 -18 -55 -95 -194 -473 -92
-249 -170 -456 -174 -459 -3 -3 -8 0 -11 8 -57 160 -311 845 -325 875 -10 23
-28 48 -40 54 -29 15 -163 25 -224 16 -83 -13 -81 -9 -247 -496 -84 -245 -155
-449 -159 -453 -4 -4 -83 195 -176 443 -107 286 -177 460 -192 475 -13 14 -40
25 -68 29 -65 9 -183 6 -221 -5z"/>
<path d="M35785 5233 c-46 -10 -73 -26 -84 -49 -14 -31 -16 -1230 -2 -1267 14
-37 64 -52 176 -52 106 0 158 14 175 46 6 11 10 260 10 638 l0 620 -22 26
c-13 14 -41 30 -63 35 -40 10 -153 11 -190 3z"/>
<path d="M45146 5226 c-21 -8 -44 -20 -50 -26 -8 -8 -11 -142 -11 -463 0 -401
2 -459 18 -516 67 -245 257 -371 557 -372 168 0 309 41 440 130 25 17 48 31
53 31 4 0 7 -20 7 -44 0 -27 7 -52 18 -65 44 -56 268 -53 307 2 13 18 15 113
15 649 0 608 -1 629 -19 647 -27 27 -83 41 -166 41 -83 0 -139 -14 -166 -41
-18 -18 -19 -37 -19 -449 l0 -430 -77 -61 c-43 -34 -112 -78 -153 -98 -70 -34
-82 -36 -170 -36 -119 0 -178 25 -226 97 -49 72 -54 129 -54 561 0 212 -3 393
-6 402 -12 31 -66 48 -164 52 -66 2 -107 -1 -134 -11z"/>
<path d="M48215 5233 c-47 -10 -77 -28 -86 -50 -5 -14 -9 -289 -9 -633 0 -344
4 -619 9 -633 14 -37 64 -52 171 -52 108 0 136 6 168 35 l22 21 0 624 0 624
-22 26 c-13 14 -41 30 -63 35 -40 10 -153 11 -190 3z"/>
<path d="M12180 2580 c-41 -6 -60 -15 -77 -35 -23 -26 -23 -28 -23 -341 0
-173 -2 -314 -5 -314 -2 0 -26 13 -52 28 -133 78 -260 108 -428 99 -204 -11
-333 -63 -456 -186 -117 -117 -169 -239 -189 -442 -31 -316 87 -582 307 -697
103 -53 175 -71 308 -79 176 -9 321 28 475 123 40 24 74 44 76 44 2 0 4 -22 4
-50 0 -85 39 -105 194 -99 73 4 88 7 110 28 l26 24 0 922 0 922 -24 22 c-16
15 -44 25 -87 31 -72 11 -82 11 -159 0z m-407 -845 c80 -21 142 -54 231 -125
l76 -61 -2 -231 -3 -232 -68 -57 c-185 -156 -388 -192 -534 -95 -134 89 -190
350 -123 568 59 192 227 284 423 233z"/>
<path d="M24341 2580 c-99 -15 -96 -1 -99 -370 -1 -176 -5 -320 -7 -320 -2 0
-30 16 -63 35 -32 19 -94 47 -138 62 -73 25 -91 27 -229 27 -170 1 -232 -12
-355 -71 -104 -50 -213 -159 -263 -263 -89 -185 -105 -456 -40 -655 64 -197
210 -335 414 -391 48 -14 101 -18 209 -18 124 0 156 3 220 23 83 26 148 56
228 107 29 19 55 34 57 34 3 0 5 -21 5 -46 0 -58 12 -79 51 -93 39 -13 188
-15 222 -2 61 24 57 -47 57 965 l0 923 -24 22 c-16 15 -44 25 -87 31 -72 11
-82 11 -158 0z m-359 -860 c62 -23 148 -77 216 -135 l42 -37 0 -228 0 -227
-42 -40 c-218 -200 -480 -229 -621 -68 -95 109 -123 372 -57 548 37 99 128
182 227 207 57 14 171 5 235 -20z"/>
<path d="M30310 2580 c-41 -6 -60 -15 -77 -35 -23 -26 -23 -28 -23 -341 0
-173 -3 -314 -6 -314 -4 0 -28 13 -53 28 -125 77 -258 108 -426 99 -204 -11
-333 -63 -456 -186 -87 -87 -136 -175 -170 -306 -30 -116 -30 -317 -1 -437 46
-186 144 -320 290 -396 102 -53 174 -71 307 -79 176 -9 322 28 474 122 l71 44
0 -30 c0 -16 6 -45 14 -64 19 -45 64 -58 183 -54 80 4 95 7 117 28 l26 24 0
918 0 918 -22 26 c-18 20 -37 28 -88 35 -73 11 -83 11 -160 0z m-405 -845 c75
-20 150 -62 238 -132 l67 -54 -2 -232 -3 -231 -68 -57 c-129 -109 -262 -159
-388 -145 -157 16 -253 116 -285 296 -31 174 -2 343 79 451 71 97 222 140 362
104z"/>
<path d="M51743 2579 c-67 -20 -63 42 -63 -974 l0 -922 25 -23 c23 -22 37 -25
125 -28 122 -5 165 2 196 33 l24 24 0 904 c0 587 -4 914 -10 933 -17 48 -44
58 -160 61 -58 1 -119 -2 -137 -8z"/>
<path d="M14600 2478 c-57 -29 -80 -73 -80 -151 0 -127 55 -170 216 -170 147
0 204 41 212 151 3 45 -1 70 -16 105 -29 65 -63 80 -187 85 -89 3 -105 1 -145
-20z"/>
<path d="M31087 2486 c-76 -27 -102 -77 -95 -177 8 -112 64 -152 214 -151 105
0 153 17 188 65 17 23 21 44 21 106 0 92 -16 123 -78 152 -51 23 -192 25 -250
5z"/>
<path d="M26265 2466 c-341 -66 -529 -270 -495 -539 20 -163 135 -294 343
-393 40 -18 162 -67 272 -109 219 -83 290 -120 341 -179 85 -99 40 -238 -99
-305 -178 -87 -460 -62 -730 64 -75 35 -121 35 -156 1 -22 -22 -26 -36 -29
-99 -5 -119 26 -158 177 -216 109 -42 265 -72 411 -78 485 -21 837 189 857
510 9 144 -31 249 -134 348 -91 88 -199 143 -487 249 -297 108 -386 174 -386
284 0 130 117 201 330 201 129 -1 215 -20 353 -81 87 -38 134 -43 167 -16 40
33 48 156 14 224 -18 36 -114 81 -239 114 -84 22 -126 27 -270 30 -115 2 -192
-1 -240 -10z"/>
<path d="M6115 2449 c-43 -17 -74 -48 -86 -88 -7 -24 -9 -305 -7 -836 3 -745
4 -803 21 -828 36 -55 59 -60 327 -61 480 -3 676 17 877 89 231 82 390 221
484 420 47 101 67 177 80 315 18 185 -10 359 -82 507 -96 195 -287 349 -524
422 -171 53 -264 62 -675 67 -267 2 -394 0 -415 -7z m775 -283 c285 -47 464
-203 517 -449 23 -110 13 -308 -21 -412 -54 -168 -161 -279 -322 -336 -116
-40 -193 -50 -431 -56 l-233 -6 0 637 0 636 203 0 c126 0 234 -5 287 -14z"/>
<path d="M40303 2441 c-84 -39 -78 29 -81 -898 -3 -929 -6 -883 69 -903 24 -7
88 -10 145 -8 85 2 107 7 131 24 l28 21 3 368 2 367 143 -4 c184 -6 235 -24
323 -113 55 -56 76 -91 203 -344 101 -200 149 -286 168 -298 21 -14 53 -19
136 -21 128 -4 171 2 198 29 41 41 31 67 -178 465 -106 202 -173 299 -244 352
l-48 36 80 38 c109 51 215 155 249 243 84 224 -17 461 -243 569 -161 77 -301
95 -737 96 -278 0 -309 -2 -347 -19z m750 -277 c135 -31 207 -109 207 -225 0
-71 -12 -104 -53 -147 -78 -82 -195 -111 -444 -112 l-163 0 0 248 c0 137 3
252 7 256 12 12 374 -4 446 -20z"/>
<path d="M38366 2320 c-24 -4 -49 -18 -63 -34 -21 -25 -23 -36 -23 -157 l0
-129 -87 -1 c-112 -1 -133 -7 -160 -48 -43 -63 -23 -184 33 -210 14 -6 67 -11
119 -11 l95 0 0 -347 c0 -433 9 -505 73 -599 88 -131 279 -193 516 -166 118
14 172 33 206 74 21 25 25 40 25 96 0 122 -34 148 -152 117 -87 -23 -182 -24
-225 -2 -17 9 -39 33 -49 54 -17 35 -19 69 -22 406 l-3 367 185 0 c122 0 194
4 211 12 37 17 55 57 55 123 0 68 -22 110 -63 125 -17 5 -110 10 -208 10
l-179 0 0 129 c0 121 -2 132 -23 156 -34 40 -153 56 -261 35z"/>
<path d="M8753 2005 c-72 -20 -122 -47 -187 -100 -31 -25 -58 -45 -61 -45 -3
0 -5 13 -5 29 0 85 -40 111 -168 111 -98 0 -147 -12 -162 -40 -13 -25 -13
-1265 0 -1290 15 -28 64 -40 160 -40 107 0 143 7 169 32 21 18 21 27 21 422
l0 403 53 60 c146 165 237 205 390 169 91 -21 130 -20 152 4 24 26 37 103 29
169 -12 95 -58 120 -234 127 -73 3 -121 -1 -157 -11z"/>
<path d="M9875 2014 c-149 -22 -314 -91 -413 -173 -78 -65 -154 -179 -189
-284 -25 -77 -27 -93 -27 -252 0 -158 2 -176 27 -251 97 -291 365 -444 779
-444 188 0 481 51 562 98 45 26 68 76 63 140 -8 109 -57 131 -199 88 -231 -71
-453 -83 -618 -36 -65 18 -144 73 -177 123 -33 50 -47 88 -59 165 l-7 42 495
0 c273 0 510 3 528 6 17 4 47 21 66 39 l34 32 0 95 c0 243 -104 425 -299 527
-121 63 -208 82 -386 86 -82 2 -163 1 -180 -1z m294 -270 c103 -30 186 -123
198 -222 l6 -52 -372 0 -371 0 0 23 c0 38 58 143 98 178 101 89 285 120 441
73z"/>
<path d="M13305 2009 c-273 -42 -451 -193 -486 -410 -16 -102 13 -222 74 -304
14 -18 12 -23 -24 -63 -50 -58 -79 -119 -86 -184 -8 -79 10 -131 67 -190 l49
-50 -32 -27 c-102 -84 -142 -161 -142 -271 0 -64 4 -83 29 -128 78 -141 247
-210 564 -232 447 -31 794 84 899 298 24 50 28 69 28 147 0 81 -3 95 -29 143
-56 100 -157 166 -314 203 -69 17 -150 23 -393 33 -265 11 -310 15 -345 32
-44 22 -56 59 -30 98 l15 23 54 -18 c130 -44 342 -50 487 -13 106 26 223 88
284 148 117 117 156 295 95 435 -10 24 -19 47 -19 52 0 5 34 9 76 9 41 0 84 5
96 11 43 23 61 118 35 182 -26 62 -23 61 -341 69 -160 3 -349 9 -421 12 -71 2
-157 1 -190 -5z m286 -261 c92 -32 141 -90 147 -178 8 -106 -36 -179 -130
-221 -45 -19 -69 -23 -153 -22 -146 1 -225 35 -266 116 -31 60 -23 163 18 220
33 47 91 83 155 97 52 11 183 4 229 -12z m-1 -1038 c220 -12 292 -42 292 -124
0 -81 -73 -141 -210 -172 -107 -24 -380 -16 -473 14 -140 46 -154 129 -38 236
l60 56 107 0 c59 -1 177 -5 262 -10z"/>
<path d="M16010 2000 c-85 -23 -199 -74 -265 -120 l-45 -31 0 45 c0 33 -6 52
-24 73 -23 26 -30 28 -116 32 -110 4 -149 -3 -178 -30 l-22 -20 0 -633 0 -633
26 -24 c23 -21 36 -24 126 -27 122 -5 163 2 194 33 l24 24 0 428 0 429 47 39
c164 140 297 186 433 151 71 -18 124 -55 154 -106 41 -69 46 -126 46 -546 l0
-401 26 -24 c23 -22 35 -24 138 -27 131 -4 179 9 197 55 7 19 9 167 6 458 -3
357 -7 441 -20 493 -46 175 -153 287 -332 348 -111 38 -303 44 -415 14z"/>
<path d="M17625 2010 c-156 -24 -299 -92 -382 -182 -128 -140 -149 -358 -49
-507 l34 -49 -33 -32 c-53 -51 -87 -124 -93 -196 -6 -81 14 -138 69 -193 l40
-40 -58 -58 c-72 -70 -104 -133 -110 -217 -12 -147 71 -257 241 -321 248 -94
727 -92 966 2 143 57 240 138 289 242 35 75 37 192 4 263 -46 99 -160 178
-318 218 -65 17 -141 23 -397 34 -277 12 -320 15 -349 32 -48 29 -55 44 -34
88 13 27 22 35 34 30 90 -38 150 -48 306 -47 145 0 169 3 250 27 49 15 112 39
139 54 80 43 161 125 198 200 28 57 33 78 36 161 3 80 0 105 -17 151 -12 30
-21 58 -21 63 0 4 35 7 78 7 74 0 80 2 107 30 24 25 29 39 29 83 1 61 -18 113
-48 130 -14 8 -113 14 -311 19 -159 3 -346 9 -415 12 -69 2 -152 1 -185 -4z
m304 -271 c59 -26 89 -54 112 -104 42 -91 7 -211 -76 -264 -86 -54 -235 -63
-351 -20 -87 33 -125 90 -125 187 0 104 65 187 171 217 73 20 205 12 269 -16z
m-18 -1028 c217 -12 289 -44 289 -130 0 -68 -56 -121 -167 -157 -76 -25 -349
-31 -454 -9 -90 18 -128 34 -159 67 -43 47 -12 133 72 197 l53 41 105 -1 c58
0 175 -4 261 -8z"/>
<path d="M20035 2001 c-190 -35 -322 -85 -368 -140 -23 -28 -27 -42 -27 -92 0
-133 59 -158 213 -95 179 75 351 101 492 77 138 -24 193 -85 203 -222 l5 -69
-166 0 c-275 0 -497 -42 -627 -117 -70 -41 -134 -107 -165 -170 -26 -52 -30
-68 -30 -153 0 -82 4 -103 27 -153 71 -151 237 -238 485 -254 161 -10 318 25
449 98 28 16 53 29 57 29 3 0 7 -17 9 -37 2 -32 9 -41 38 -56 48 -25 213 -21
253 6 l27 17 0 473 c0 387 -3 483 -15 530 -43 167 -152 268 -343 319 -113 30
-380 34 -517 9z m515 -880 l0 -100 -64 -45 c-108 -78 -167 -100 -279 -104
-116 -5 -172 8 -222 52 -67 58 -66 155 1 214 67 58 172 79 407 81 l157 1 0
-99z"/>
<path d="M22025 2005 c-101 -22 -222 -77 -312 -141 -23 -16 -23 -16 -23 33 0
40 -5 54 -26 74 -24 23 -32 24 -146 24 -119 0 -120 0 -144 -28 l-24 -28 0
-625 0 -625 24 -24 c31 -30 72 -38 190 -33 77 2 100 7 123 24 l28 21 3 431 2
430 50 45 c126 113 227 160 345 161 104 1 162 -21 213 -80 69 -77 72 -103 72
-563 0 -269 4 -409 11 -423 18 -33 70 -48 174 -48 105 0 156 15 175 50 8 16
10 143 7 468 -4 484 -5 491 -63 609 -58 120 -200 218 -357 248 -95 18 -240 18
-322 0z"/>
<path d="M27975 2009 c-136 -21 -285 -86 -383 -168 -79 -66 -154 -180 -188
-284 -36 -111 -45 -303 -20 -428 71 -352 370 -533 851 -516 221 8 466 58 528
108 52 40 60 157 16 213 -26 34 -68 34 -173 1 -147 -45 -233 -59 -386 -59
-122 -1 -156 3 -215 21 -91 29 -155 70 -194 126 -30 44 -61 137 -61 184 l0 23
503 0 c502 0 503 0 547 22 59 30 70 55 70 159 0 290 -168 504 -457 580 -90 24
-337 34 -438 18z m250 -249 c89 -13 165 -50 209 -102 37 -43 66 -113 66 -160
l0 -28 -370 0 -370 0 0 23 c0 38 58 143 98 178 47 41 123 76 192 88 75 12 94
12 175 1z"/>
<path d="M32475 2001 c-94 -26 -153 -52 -236 -106 l-69 -45 0 45 c0 32 -6 51
-24 72 -24 28 -25 28 -146 28 -121 0 -122 0 -146 -28 l-24 -28 0 -620 c0 -425
3 -627 11 -641 18 -33 70 -48 174 -48 104 0 156 15 174 48 7 14 11 159 11 440
l0 419 54 51 c115 109 216 157 326 156 143 -1 225 -75 250 -225 5 -36 10 -232
10 -447 0 -231 4 -391 10 -402 15 -28 65 -40 172 -40 89 0 127 8 170 34 1 0 5
199 8 441 l5 440 85 68 c122 98 194 131 284 131 39 0 88 -5 109 -13 53 -18
106 -67 131 -121 20 -43 21 -66 26 -486 4 -353 8 -444 19 -457 23 -28 82 -39
188 -35 84 2 106 7 130 24 l28 21 3 429 c2 348 -1 444 -13 509 -50 268 -264
416 -580 402 -160 -8 -253 -42 -415 -153 l-83 -56 -38 45 c-50 58 -120 103
-211 134 -103 35 -292 42 -393 14z"/>
<path d="M35131 2005 c-384 -72 -609 -356 -587 -740 12 -199 64 -332 177 -446
147 -149 384 -219 699 -206 208 9 444 56 516 103 34 23 47 66 42 140 -3 55 -8
70 -27 85 -32 26 -66 24 -185 -10 -125 -37 -193 -49 -310 -57 -107 -8 -244 8
-321 37 -111 42 -190 145 -202 265 l-6 54 503 0 c487 0 505 1 546 20 74 36 91
119 59 286 -44 230 -207 394 -455 459 -90 23 -349 29 -449 10z m357 -265 c102
-36 171 -120 188 -227 l7 -43 -377 0 c-234 0 -376 4 -376 10 0 32 48 126 85
168 48 53 133 98 213 112 66 12 197 2 260 -20z"/>
<path d="M37055 2002 c-93 -24 -165 -56 -247 -109 l-68 -43 0 35 c0 89 -38
115 -168 115 -98 0 -147 -12 -162 -40 -13 -25 -13 -1265 0 -1290 15 -28 65
-40 172 -40 112 0 163 16 179 57 5 13 9 213 9 443 l0 419 68 54 c176 142 326
178 468 113 56 -26 95 -69 121 -137 15 -38 17 -96 20 -459 2 -228 5 -425 8
-436 8 -37 62 -54 173 -54 105 0 138 7 165 35 15 15 17 61 17 459 0 405 -2
449 -19 519 -25 95 -51 147 -104 205 -57 61 -130 106 -224 138 -106 36 -302
43 -408 16z"/>
<path d="M42527 2005 c-171 -33 -311 -106 -413 -218 -73 -80 -115 -155 -146
-262 -32 -115 -32 -325 0 -440 33 -112 77 -190 152 -265 140 -141 354 -210
645 -210 161 1 392 37 508 80 80 30 107 65 107 141 0 72 -20 116 -57 125 -29
8 -61 2 -218 -40 -206 -55 -430 -58 -567 -6 -70 26 -149 95 -177 155 -12 25
-25 72 -30 105 l-8 60 504 0 c545 0 543 0 593 55 24 25 25 33 24 133 -4 293
-172 502 -464 577 -92 23 -351 29 -453 10z m348 -262 c110 -35 189 -126 197
-228 l3 -40 -372 -3 c-426 -3 -394 -11 -344 93 48 103 144 173 265 195 66 11
187 4 251 -17z"/>
<path d="M44454 2005 c-75 -16 -199 -72 -265 -120 l-49 -35 0 29 c0 47 -21 91
-51 106 -39 20 -209 21 -248 0 -16 -8 -31 -22 -35 -30 -3 -9 -6 -300 -6 -646
0 -610 1 -630 19 -648 27 -27 71 -34 189 -29 90 3 103 6 126 27 l26 24 0 428
0 428 78 66 c42 36 110 82 151 102 64 32 83 37 145 37 123 1 193 -40 237 -136
24 -53 24 -57 29 -489 4 -349 8 -439 19 -452 23 -28 82 -39 188 -35 84 2 106
7 130 24 l28 21 3 429 2 428 28 29 c46 49 144 119 212 151 121 57 271 35 335
-48 58 -76 59 -85 62 -541 2 -231 5 -430 8 -441 8 -37 62 -54 174 -54 120 0
162 14 180 58 17 41 9 873 -9 947 -58 236 -233 369 -505 382 -85 4 -130 2
-189 -11 -89 -20 -227 -86 -316 -152 l-62 -45 -56 57 c-65 66 -161 116 -267
139 -85 18 -229 18 -311 0z"/>
<path d="M47125 2005 c-320 -52 -529 -231 -601 -510 -24 -96 -24 -294 0 -390
80 -310 318 -475 711 -492 214 -9 362 17 525 94 82 39 107 58 180 132 89 90
130 158 167 277 25 82 26 331 1 421 -60 218 -219 376 -443 441 -145 43 -375
54 -540 27z m410 -288 c107 -50 170 -130 200 -259 17 -74 19 -182 4 -262 -37
-204 -187 -316 -423 -316 -218 0 -354 83 -407 248 -30 96 -30 270 0 364 38
117 120 201 234 238 52 17 83 20 197 17 123 -2 140 -5 195 -30z"/>
<path d="M50380 2005 c-174 -29 -336 -88 -386 -142 -29 -31 -39 -96 -25 -151
22 -81 79 -91 214 -37 160 65 228 79 372 80 158 0 215 -16 269 -75 37 -41 47
-76 50 -163 l1 -52 -210 -6 c-222 -7 -334 -23 -450 -62 -103 -35 -146 -60
-213 -122 -84 -77 -107 -132 -107 -255 0 -88 3 -101 33 -162 54 -110 143 -176
299 -220 64 -18 103 -22 223 -23 171 0 230 13 365 79 49 25 91 43 93 41 4 -4
10 -33 11 -53 1 -7 16 -21 34 -32 25 -16 50 -20 118 -20 95 0 144 13 159 40 6
12 10 197 10 477 0 373 -3 470 -15 522 -40 169 -147 268 -349 323 -96 26 -374
33 -496 13z m500 -883 l0 -98 -57 -43 c-32 -23 -87 -56 -123 -74 -57 -27 -78
-32 -167 -35 -120 -5 -183 12 -230 61 -85 88 -33 213 104 253 88 26 144 31
316 33 l157 1 0 -98z"/>
<path d="M14603 1985 c-17 -7 -36 -22 -42 -34 -15 -28 -15 -1244 0 -1273 18
-33 70 -48 174 -48 104 0 156 15 174 48 15 27 15 1229 1 1267 -6 15 -24 32
-45 40 -45 20 -218 19 -262 0z"/>
<path d="M31073 1985 c-17 -7 -36 -22 -42 -34 -8 -13 -11 -216 -11 -641 l0
-621 24 -24 c31 -30 72 -38 190 -33 77 2 100 7 123 24 l28 21 3 627 c1 437 -1
633 -9 647 -6 12 -26 27 -44 35 -45 19 -218 18 -262 -1z"/>
<path d="M48288 1985 c-31 -17 -44 -52 -34 -91 4 -14 102 -233 218 -487 116
-254 239 -523 273 -597 79 -174 79 -174 264 -179 147 -3 195 5 229 42 18 19
274 566 504 1076 66 146 73 190 39 225 -20 19 -32 21 -156 21 -130 0 -135 -1
-159 -25 -16 -15 -103 -204 -222 -480 -108 -250 -199 -459 -204 -463 -7 -8
-17 13 -268 588 -113 257 -156 344 -176 360 -24 17 -45 20 -154 23 -99 1 -133
-1 -154 -13z"/>
</g>
</svg>
